<?xml version="1.0" encoding="UTF-8"?>
<svg version="1.1" viewBox="0 0 2048 2048" width="1280" height="1280" xmlns="http://www.w3.org/2000/svg">
<path transform="translate(1e3 23)" d="m0 0h42l24 4 21 6 15 6 19 9 22 12 33 17 23 13 7 5 6 9 2 7v11l-2 8 22 12 25 13 4 1 8-9 8-4 4-1h12l12 5 35 18 22 12 27 14 22 12 31 16 18 10 16 8 22 12 27 14 22 12 29 15 22 12 29 15 22 12 27 14 20 11 12 8 10 8 11 11 9 12 9 16 7 19 3 14 1 8v22l-5 25-6 16h69l25 2 21 5 21 9 16 10 11 9 10 9 9 10 9 13 8 14 8 21 4 17 2 25v1077h53l11 2 8 5 7 8 4 7v94l-6 29-6 19-7 17-8 15-10 15-8 10-9 10-5 6-8 7-15 12-20 12-21 10-18 6-23 5-19 2h-1684l-25-3-22-6-20-8-16-8-16-10-16-13-21-21-12-16-9-15-8-16-7-19-6-22-3-16v-97l8-11 7-6 6-3 5-1h57l-1-6v-1010l1-72 3-21 6-20 10-21 12-17 12-13 11-10 13-9 16-9 15-6 21-5 7-1 22-1h64l-3-9-5-18-2-12-1-14 2-20 5-19 7-16 7-12 9-12 12-12 13-10 19-11 25-13 22-12 27-14 22-12 31-16 22-12 27-14 22-12 31-16 22-12 27-14 12-7 16-8 23-12 12-7 16-8 22-12 29-15 22-12 29-15 22-12 29-15 51-27 23-12 25-9 21-5z" fill="#010000"/>
<path transform="translate(215,573)" d="m0 0h144l26 14 8 4 15 8 38 20 22 12 12 6 15 8 11 6 2 3h-261l-10 4-3 1-2 4-3 1-2 5-3 7v955l4 10 7 7 10 5h174l10-5 8-9 3-8v-14l-6-12-8-7-10-3-132-1-1-1v-877l1-2h267l1 114 1 21 4 31 7 28 8 23 11 24 9 17 8 12 13 18 9 10 7 8 15 15 11 9 14 11 17 11 22 12 23 10 29 11 43 14 34 9 37 8 36 6 35 4 37 3 22 1h44l38-2 46-5 37-6 30-6 39-10 10-3 4 1v31l-4 10-10 17-15 26-14 24-16 28-7 13-5 17-2 13v9l3 19 6 16 6 11 7 9 8 9 13 9 16 8 16 4 6 1h44l16-3 13-5 14-8 11-9 10-12 9-16 5-15 2-9 1-17-3-19-5-14-12-22-13-22-15-26-14-24-10-18-1-4v-53l5-3 21-9 24-13 15-10 12-9 11-9 15-14 8-8 18-22 12-18 10-17 12-26 7-20 7-25 5-30 1-11 1-31 1-103 267 1v879l-1211 1-27 1-8 3-6 4-6 7-3 6v17l4 9 5 6 8 5 9 2h1267l9-2 6-3 6-5 5-8 2-7v-952l-4-9-7-8-10-5-4-1-258-1 4-4 29-15 22-12 29-15 14-8 16-8 22-12 10-6h144l16 4 13 5 12 8 10 9 7 8 8 14 5 12 3 17v1083l-1 1h-1190l-571-1-1-87v-905l1-96 3-13 5-12 7-12 12-13 8-7 14-8 11-4z" fill="#71C17F"/>
<path transform="translate(1017,82)" d="m0 0h13l18 2 19 5 15 6 17 8v2l5 1 19 10 29 15 16 9 13 5h13l10-5 8-7 3-3 22 12 25 13 4 3-3 9v11l4 10 8 8 24 13 20 11 16 8 28 15 8 4v2l5 1 25 13 38 20v2l5 1 25 13 19 10 28 15 6 3v2l5 1 13 7 16 8 26 14 23 12 19 10 28 15 22 12 10 8 7 7 8 14 4 13v21l-4 13-7 13-9 10-13 9-23 12-22 12-29 15-22 12-33 17-22 12-31 16-22 12-27 14-22 12-29 15-22 12-23 12-22 12-23 12-7 4-4-1-9-10-7-8-9-10-9-11-13-14-7-8-12-14-9-10-7-8-12-14-11-12-9-11-11-12-7-8-12-14-9-10-7-8-26-30-11-12-9-11-12-13-9-11-9-10-5-6-10-7-5-2h-15l-10 5-8 9-3 9v12l6 12 9 11 12 13 9 11 11 12 7 8 9 10 9 11 12 13 9 11 11 12 7 8 9 10 9 11 13 14 9 11 12 13 9 11 11 12 7 8 9 10 9 11 12 13 7 8 9 10 3 4v2l-23 12-22 12-25 13-22 12-31 16-19 10-15 7-18 6-20 4h-30l-25-5-25-10-27-14-22-12-25-13-22-12-31-16-22-12-34-18-27-14-22-12-23-12-19-10-32-17-22-12-31-16-22-12-33-17-22-12-31-16-22-12-27-14-22-12-29-15-18-10-9-7-9-9-8-15-3-12v-20l4-14 6-11 7-9 10-8 21-12 33-17 22-12 31-16 22-12 25-13 19-10 28-15 34-18 23-12 22-12 31-16 22-12 23-12 22-12 31-16 22-12 42-22 60-32 27-14 22-12 15-7 20-7 16-3z" fill="#655F65"/>
<path transform="translate(215,573)" d="m0 0h144l26 14 8 4 15 8 38 20 22 12 12 6 15 8 11 6 2 3h-261l-10 4-3 1-2 4-3 1-2 5-3 7v955l4 10 7 7 10 5h174l10-5 8-9 3-8 2-8 59 1 4 14 6 8 9 6 9 2h1267l9-2 6-3 6-5 5-8 2-7v-952l-4-9-7-8-10-5-4-1-258-1 4-4 29-15 22-12 29-15 14-8 16-8 22-12 10-6h144l16 4 13 5 12 8 10 9 7 8 8 14 5 12 3 17v1083l-1 1h-1190l-571-1-1-87v-905l1-96 3-13 5-12 7-12 12-13 8-7 14-8 11-4z" fill="#E0ECF2"/>
<path transform="translate(61,1794)" d="m0 0 716 1 6 21 7 16 8 14 10 13 9 10 10 9 14 10 19 10 24 8 18 3 21 1h167l56-1 24-5 19-7 19-10 16-12 11-10 9-11 7-10 8-14 9-23 3-12h717v43l-2 17-3 14-5 12-7 16-6 9-9 12-11 12-9 7h-2v2l-4 1v2l-7 4-11 6-8 4-12 4-16 4-7 1-1594 1h-82l-22-2-15-4-17-6-18-10-13-10-12-11-10-12-9-14-9-19-5-17-2-9-1-12v-45z" fill="#E0ECF2"/>
<path transform="translate(612,708)" d="m0 0 5 2 25 13 19 10 28 15 34 18 23 12 22 12 29 15 19 10 26 14 32 17 25 13 22 12 27 13 24 8 25 5 25 2 20-1 20-3 17-4 21-7 29-14 56-30 64-34 3-1v243l-7 3-27 8-36 9-37 7-26 4-51 5-22 1h-32l-41-2-25-2-33-4-28-5-34-7-30-8-38-12-24-9-24-10-21-11-16-11-11-9-10-9-10-10-9-11-10-13-14-24-9-20-7-21-4-17-3-22-1-17z" fill="#464146"/>
<path transform="translate(144,641)" d="m0 0h1v64l1 32v916l-1 39h1584l175 1v-1043h1v1083l-1 1h-1190l-571-1-1-87v-905l1-96z" fill="#B4CED6"/>
<path transform="translate(1249,839)" d="m0 0h2v210l-19 6-33 9-37 8-35 6-36 4-11 1h-41l-25-7-25-9-20-8-21-10-20-11-17-12-11-9-13-12-8-8-5-6v-2h-2l-14-19-9-14-7-12-9-20-10-28-5-21-3-17v-8l7 2 18 10 27 14 42 22 22 12 17 8 13 6 19 6 11 3 22 3h22l12-1 18-4 24-8 16-7 31-16 12-7 12-6 16-9 16-8 22-12 16-8z" fill="#655F65"/>
<path transform="translate(552,1452)" d="m0 0h167l244 1 45 1 11 4 7 6 6 10 1 4v13l-4 9-9 10-8 4-14 1h-590l-16-2-8-4-8-9-4-11 1-13 5-10 7-7 8-4 4-1 30-1z" fill="#020101"/>
<path transform="translate(1434,708)" d="m0 0h2v138l-3 22-4 17-8 24-10 22-13 21-8 11-12 14-15 15-14 11-11 8-20 12-3 2h-3v-252l19-10 28-15 22-12 31-16 18-10z" fill="#655F65"/>
<path transform="translate(493,1327)" d="m0 0h264l52 1 11 4 8 7 5 10 1 3v13l-4 9-8 9-7 4-4 1h-412l-9-2-9-6-6-8-3-11v-8l4-10 5-7 9-6 6-2z" fill="#010000"/>
<path transform="translate(61,1794)" d="m0 0 148 1-1 5 1 5 2 30 3 26 3 15 7 21 10 19 8 12 9 11 6 7 8 7 10 7 2 2v1l1592 1v1l-1594 1h-82l-22-2-15-4-17-6-18-10-13-10-12-11-10-12-9-14-9-19-5-17-2-9-1-12v-45z" fill="#B4D0D7"/>
<path transform="translate(839,1794)" d="m0 0h370l-1 5-6 11-7 10-7 8-13 10-14 7-9 3-7 1h-244l-17-5-14-8-14-12-9-12-8-15z" fill="#B5CFD7"/>
<path transform="translate(1281,1216)" d="m0 0 3 1 4 8 10 15 2 5 5 9 11 19 6 10 2 6v15l-4 10-5 5-8 6-7 2h-38l-6-2-8-5-4-6v-2h-2l-3-11v-8l3-11 7-11 3-6h2l2-7h2l2-7 3-5 6-9 3-6 7-11z" fill="#E0ECF2"/>
<path transform="translate(1434,708)" d="m0 0h2v82h-1l-1-48-23 13-18 10-16 8-29 15-19 10-15 7-1 219 2 1h-3v-252l19-10 28-15 22-12 31-16 18-10z" fill="#464146"/>
<path transform="translate(144,641)" d="m0 0h1v64l1 32v916l-1 29-1 51h-1l-1-87v-905l1-96z" fill="#9DB4B6"/>
<path transform="translate(215,573)" d="m0 0h144l-4 3-30 1h-27l-26-1-62-1v-1z" fill="#9BC7B6"/>
<path transform="translate(1687,573)" d="m0 0h144l6 1v1l-58 1h-81l-12-1z" fill="#99C5B3"/>
<path transform="translate(1555,644)" d="m0 0h3l1 7h-13l1-3z" fill="#F1F8F4"/>
<path transform="translate(849,1813)" d="m0 0 11 11v2l4 2 5 5-4-1-9-8-7-9z" fill="#C9E1DD"/>
<path transform="translate(1545,649)" d="m0 0 2 1 11 1v1l-8 1h-9z" fill="#D4E6E8"/>
</svg>
