<?xml version="1.0" encoding="UTF-8"?>
<svg version="1.1" viewBox="0 0 2048 2048" width="1280" height="1280" xmlns="http://www.w3.org/2000/svg">
<path transform="translate(134,853)" d="m0 0h669l20 3 17 5 18 8 14 8 13 10 10 9 7 7 10 13 8 13 8 16 7 21 3 16 1 9v918l-3 22-6 20-7 16-9 15-9 12-11 12-11 10-13 9-18 10-22 8-18 5h-684l-29-8-16-7-16-9-13-10-12-11-11-12-7-10-10-17-7-17-7-25v-944l7-24 8-19 8-14 9-12 9-10 1-2h2v-2l8-7 13-10 17-10 19-8 19-5zm127 128-118 1-8 5-4 5-2 5-1 46v851l2 13 4 6 5 4 5 2h651l8-5 5-6 2-7v-902l-4-10-8-6-3-1-91-1z"/>
<path transform="translate(1234)" d="m0 0h693l3 2 17 5 15 6 15 8 14 10 14 12 10 11 12 17 9 17 7 20 3 11h2v955h-2l-4 16-8 20-7 13-8 12-11 13-10 10-13 10-13 8-16 8-18 6-21 4-10 1h-657l-18-2-17-4-20-8-17-9-12-9-10-9-14-14-11-16-9-16-7-18-5-22-1-8-1-38v-870l1-19 5-25 7-19 8-16 8-12 11-13 6-7 11-9 12-9 16-9 17-7 16-5zm25 128-8 1-8 6-3 4-2 6v905l3 8 6 5 4 2 6 1h645l8-3 7-8 2-5v-906l-4-8-6-5-4-2-11-1z"/>
<path transform="translate(1243,1365)" d="m0 0h670l20 3 17 5 15 7 13 7 14 10 12 11 9 9 11 15 8 14 6 13 7 21 2 4h1v443h-2l-5 19-8 19-7 13-7 10-9 11-4 5-8 7-11 9-13 8-15 8-16 6-22 6h-690l-1-2-21-6-17-7-16-9-13-10-13-12-7-8-9-12-9-15-8-18-6-22-2-14-1-39v-357l1-18 4-22 6-18 9-19 13-19 11-12 9-9 15-11 15-9 17-7 12-4 15-3zm109 128-99 1-8 4-5 6-2 6v394l4 8 6 5 5 2h651l6-3 5-5 4-8v-393l-3-7-5-6-7-3-123-1z"/>
<path transform="translate(125)" d="m0 0h688l24 7 16 6 18 10 13 10 10 9 10 10 13 18 10 19 7 20 4 19 1 10v406l-3 21-6 21-11 23-8 12-8 10-11 12-12 10-14 9-17 9-21 7-20 4-11 1h-657l-17-2-17-4-16-6-16-8-12-8-10-8-12-11-7-8-10-14-8-14-7-16-6-20-2-6v-434l2-5 6-21 8-18 10-17 9-11 9-10 11-10 16-11 10-6 25-10zm25 128-10 2-8 7-3 7-1 41v345l2 12 4 6 3 3 5 2 6 1h645l8-3 7-8 2-7v-391l-5-10-5-4-4-2-7-1z"/>
<path transform="translate(121,2047)" d="m0 0 3 1z"/>
<path transform="translate(817)" d="m0 0 2 1z"/>
</svg>
