<svg xmlns="http://www.w3.org/2000/svg" version="1.1" xmlns:xlink="http://www.w3.org/1999/xlink" xmlns:svgjs="http://svgjs.dev/svgjs" width="1500" height="1682" viewBox="0 0 1500 1682"><g transform="matrix(1,0,0,1,-2.3361931736363886,0)"><svg viewBox="0 0 321 360" data-background-color="#ececea" preserveAspectRatio="xMidYMid meet" height="1682" width="1500" xmlns="http://www.w3.org/2000/svg" xmlns:xlink="http://www.w3.org/1999/xlink"><g id="tight-bounds" transform="matrix(1,0,0,1,0.5000546608418972,0)"><svg viewBox="0 0 320 360" height="360" width="320"><g><svg></svg></g><g><svg viewBox="0 0 320 360" height="360" width="320"><g><path transform="translate(-119.39272,-98.31927) scale(5.58313,5.58313)" d="M36.7 23.5c0-0.2 0.1-0.4 0.3-0.4 0.2 0 0.4 0.1 0.4 0.4 0.1 0 0.3 0 0.4-0.1 0.4 0 0.8-0.1 1.1 0 0.3 0.1 0.5 0.1 0.8 0.2 0.3 0.1 0.5 0 0.7-0.1 0.4-0.1 0.7-0.3 1.1-0.4 0.2-0.1 0.3-0.1 0.5-0.1 0.2-0.1 0.4-0.1 0.7-0.2 0.5-0.1 1-0.2 1.4-0.4 0.4-0.2 0.8-0.2 1.2-0.3 0.2 0 0.3-0.1 0.5-0.2 0.1 0 0.1-0.1 0.2-0.2 0.2-0.1 0.3-0.2 0.5-0.1 0.1 0.1 0.3 0.1 0.4 0h0.1c0.6 0 1.2-0.1 1.9 0 0.1 0 0.2 0 0.2 0 0.3-0.2 0.7-0.2 1.1-0.2 0.1 0 0.3 0 0.4 0h0.1c0.4 0 0.8 0 1.1 0.1 0.3 0 0.5 0.1 0.8 0.2 0.3 0 0.5 0 0.8 0.1 0.2 0 0.4 0 0.6 0 0.1 0 0.2 0 0.2 0 0.4 0.1 0.8 0.1 1.2 0.1 0.3 0.1 0.6 0.2 1 0.2 0.1 0 0.2 0 0.3 0 0.1 0 0.2 0.1 0.3 0.1l0.1 0.1c0.4 0 0.7 0.2 1.1 0.2 0.1 0 0.3 0 0.4 0.1 0.3 0.2 0.7 0.3 1.1 0.3 0.2 0 0.3 0.1 0.4 0.2 0.3 0.1 0.5 0.2 0.8 0.3 0.2 0.1 0.4 0 0.6 0.1 0.3 0.1 0.7 0.2 1 0.5 0.2 0.2 0.4 0.2 0.7 0.4 0.1 0 0.2 0.1 0.3 0.2 0.3 0.2 0.6 0.4 0.9 0.5 0.1 0 0.2 0.1 0.3 0.1 0.3 0.2 0.6 0.5 1 0.7 0.2 0.1 0.3 0.2 0.5 0.3h0.1c0.3 0.3 0.7 0.5 1 0.8 0.3 0.3 0.5 0.5 0.9 0.7 0 0 0 0 0 0.1 0.1 0.2 0.2 0.3 0.4 0.4 0.2 0.1 0.3 0.2 0.4 0.3 0.3 0.2 0.6 0.4 0.8 0.6 0.1 0.1 0.2 0.2 0.4 0.4 0.1 0.1 0.2 0.2 0.3 0.2 0.4 0.1 0.6 0.4 0.9 0.7 0.2 0.2 0.5 0.5 0.7 0.7 0.1 0.1 0.2 0.3 0.3 0.5 0.2 0.6 0.5 1.2 0.8 1.7 0 0 0 0.1 0.1 0.2v0.1c0.2 0.2 0.3 0.5 0.5 0.7 0.1 0.1 0.1 0.2 0.2 0.3 0.2 0.3 0.3 0.7 0.5 1 0.3 0.5 0.5 1 0.7 1.5v0.1c0.1 0.2 0.2 0.4 0.3 0.7 0 0.2 0.2 0.4 0.3 0.7 0.1 0.5 0.4 1 0.5 1.6 0 0.1 0.1 0.2 0.1 0.4 0.1 0.3 0.2 0.6 0.3 0.9 0 0.1 0.1 0.2 0.2 0.3 0.2 0.2 0.2 0.4 0.2 0.6-0.1 0.4 0 0.8 0.1 1.2 0 0.1 0 0.2 0 0.4 0.1 0.4 0.2 0.9 0.2 1.3 0 0.1 0 0.3 0 0.4 0 0.3 0.1 0.6 0.3 0.9 0 0.1 0.1 0.1 0.1 0.1 0.1 0.1 0.2 0.3 0.3 0.4 0.1 0.1 0.1 0.1 0.2 0.2 0.2 0.2 0.3 0.4 0.3 0.7 0 0.1-0.1 0.3-0.1 0.4 0 0.1 0 0.3 0.1 0.4 0.1 0.1 0.1 0.2 0.1 0.3 0 0.1-0.1 0.2-0.2 0.2v0c-0.1 0.3-0.5 0.4-0.6 0.7-0.1 0.4-0.2 0.8-0.3 1.2-0.1 0.3-0.1 0.5-0.1 0.8 0 0.3-0.1 0.5-0.1 0.8-0.1 0.4-0.2 0.8-0.3 1.2 0 0.2-0.1 0.4-0.1 0.6 0.1 0.1 0.2 0.2 0.3 0.2 0.2 0.2 0.4 0.4 0.6 0.6 0.1 0.1 0.1 0.2 0 0.2-0.1 0.1-0.2 0.1-0.3 0.1-0.1-0.1-0.3-0.2-0.4-0.2-0.1-0.1-0.3-0.2-0.5-0.1 0 0.2-0.1 0.4-0.1 0.5-0.1 0.2-0.2 0.5-0.2 0.7-0.1 0.4-0.3 0.7-0.4 1.1-0.2 0.5-0.4 0.9-0.6 1.3-0.1 0.2-0.2 0.4-0.3 0.6v0c0 0.3-0.3 0.6-0.4 0.9-0.2 0.4-0.4 0.8-0.6 1.3-0.1 0.2-0.2 0.4-0.3 0.5-0.2 0.5-0.4 0.9-0.7 1.3-0.2 0.3-0.4 0.5-0.6 0.6-0.2 0.2-0.4 0.4-0.6 0.6-0.1 0.1-0.2 0.2-0.3 0.3-0.1 0.1-0.1 0.1-0.2 0.2-0.2 0.3-0.5 0.5-0.7 0.8-0.2 0.2-0.3 0.4-0.6 0.6-0.2 0.2-0.4 0.5-0.7 0.6-0.1 0.1-0.2 0.3-0.3 0.4-0.1 0.1-0.2 0.3-0.3 0.4 0 0.2 0.1 0.4 0.1 0.5 0 0.3-0.3 0.4-0.5 0.2-0.3-0.2-0.3-0.2-0.6 0-0.3 0.2-0.6 0.5-1 0.6-0.1 0-0.1 0.1-0.2 0.1-0.2 0.1-0.3 0.3-0.5 0.4-0.2 0.2-0.5 0.3-0.7 0.5-0.1 0.1-0.2 0.1-0.3 0.2-0.3 0.2-0.6 0.3-0.9 0.6-0.1 0.1-0.2 0.1-0.3 0.2 0 0.1 0 0.1 0 0.2 0 0.2-0.2 0.4-0.5 0.3-0.3-0.1-0.5 0-0.8 0-0.3 0.1-0.6 0.3-0.9 0.4-0.1 0-0.2 0.1-0.3 0.2-0.3 0.2-0.6 0.3-0.9 0.4-0.2 0-0.4 0.2-0.6 0.2-0.1 0-0.2 0.1-0.3 0.1h-0.1c-0.4 0.3-0.8 0.5-1.2 0.8-0.1 0-0.1 0.1-0.2 0.2-0.1 0.2-0.2 0.3-0.4 0.3-0.5 0-0.7 0.4-0.6 0.8 0 0.1 0.1 0.2 0.1 0.3 0.1 0.2 0 0.4-0.1 0.5-0.1 0.1-0.4 0.1-0.5-0.1-0.2-0.2-0.3-0.4-0.4-0.7-0.1-0.2-0.3-0.4-0.5-0.5-0.2-0.1-0.4-0.1-0.6 0-0.1 0-0.1 0.1-0.2 0.1-0.2 0.2-0.5 0.3-0.8 0.2-0.1 0-0.3 0-0.3 0.1-0.1 0.1-0.1 0.3 0 0.4 0.2 0.2 0.1 0.4 0.1 0.7 0 0.4-0.3 0.6-0.7 0.4-0.1-0.1-0.2-0.1-0.3-0.2-0.1 0-0.1-0.1-0.1-0.2-0.1-0.1-0.1-0.3-0.2-0.5-0.2 0.1-0.4 0.1-0.6 0.2-0.1 0-0.2 0.1-0.3 0.1-0.3 0-0.4 0-0.5-0.3-0.1-0.3-0.3-0.3-0.5-0.4-0.4-0.1-0.9-0.1-1.3-0.3h-0.1c-0.4-0.3-0.8-0.3-1.3-0.3-0.3 0-0.6 0.1-0.9 0.1-0.3 0-0.5 0.1-0.7 0.3-0.1 0.1-0.2 0.2-0.3 0.2-0.1-0.1-0.1-0.2-0.2-0.3v-0.1c0-0.1-0.1-0.2-0.2-0.1-0.2 0.1-0.4-0.1-0.6-0.2-0.1-0.1-0.3-0.3-0.3-0.5-0.1-0.1-0.2-0.2-0.3-0.2-0.2 0-0.5-0.1-0.7-0.1-0.1 0-0.2 0-0.2-0.1-0.1-0.1-0.2-0.1-0.4-0.1-0.1 0-0.1-0.1-0.2-0.1 0.2 0.2 0.3 0.4 0.4 0.6 0 0.1 0.1 0.1 0.1 0.2 0.1 0.2 0 0.3-0.3 0.3-0.2 0-0.2 0-0.3 0.1 0 0.2 0 0.3 0 0.5 0 0.1 0 0.2-0.2 0.3 0 0-0.1 0-0.1 0.1-0.1 0.1-0.1 0.2 0 0.3 0.3 0.2 0.5 0.3 0.8 0.4 0.3 0 0.3 0.2 0.4 0.4 0.1 0.2 0 0.3-0.1 0.5-0.2 0.2-0.4 0.4-0.6 0.6-0.3 0.1-0.5 0.4-0.8 0.4-0.2 0-0.4-0.1-0.5-0.3-0.1-0.5-0.1-0.9 0.1-1.4 0-0.1 0.1-0.2 0-0.3-0.9 0-0.9-0.2-0.9-0.3 0-0.2 0.1-0.3 0.1-0.5 0.1-0.2 0-0.3-0.3-0.4-0.1 0-0.2 0-0.3 0-0.1 0-0.1-0.1-0.3-0.1 0.2-0.1 0.3-0.1 0.5-0.2-0.1-0.4-0.2-0.7-0.5-0.9-0.1-0.1-0.2-0.2-0.2-0.4 0-0.3-0.2-0.5-0.3-0.7-0.2-0.3-0.6-0.4-0.9-0.4-0.3-0.1-0.5-0.1-0.8-0.2-0.3-0.1-0.6-0.4-0.9-0.5-0.1-0.1-0.2-0.2-0.4-0.3-0.4-0.2-0.7-0.5-1-0.8-0.2-0.1-0.3-0.3-0.5-0.4-0.2-0.2-0.3-0.4-0.5-0.5-0.2-0.2-0.4-0.4-0.7-0.6-0.3-0.2-0.5-0.5-0.8-0.8-0.2-0.3-0.5-0.5-0.8-0.7-0.1 0-0.2 0-0.3 0-0.1 0-0.2 0.1-0.3 0.1-0.3 0.1-0.5 0.3-0.8 0.4 0.1-0.1 0.1-0.1 0-0.3-0.1-0.1-0.2-0.2-0.3-0.2-0.2 0-0.4 0-0.6 0-0.4 0-0.8 0.1-1.2 0.1-0.3 0-0.7 0.1-1 0.2 0.1 0.2 0.1 0.3 0.2 0.5-0.2 0.1-0.4 0.1-0.6 0.1-0.1 0-0.3 0.1-0.4 0.2-0.1 0-0.1 0.1-0.2 0-0.2-0.1-0.4 0-0.6 0.1h-0.1c0 0 0-0.1 0.1-0.1 0.1-0.1 0.2-0.2 0.3-0.3 0.1-0.1 0.2-0.1 0.4-0.2-0.1-0.1-0.1-0.2-0.1-0.2-0.1-0.1-0.2-0.1-0.3 0-0.1 0.1-0.2 0.2-0.3 0.3-0.1 0.1-0.2 0.1-0.3 0-0.1-0.1-0.1-0.2 0-0.3 0-0.1 0.1-0.2 0.2-0.3 0.1-0.1 0.1-0.2 0.2-0.3-0.2-0.2-0.3-0.4-0.5-0.5-0.3-0.2-0.6-0.5-0.8-0.8-0.2-0.4-0.5-0.7-0.9-0.9-0.1-0.1-0.2-0.2-0.3-0.3-0.1-0.1-0.1-0.1-0.2-0.2-0.3 0.1-0.5 0.3-0.8 0.4-0.1 0-0.1 0.1-0.2 0.2-0.1 0.2-0.3 0.2-0.5 0.2-0.1 0-0.2-0.1-0.1-0.2 0.1-0.2 0.2-0.4 0.5-0.3 0 0 0.1 0 0.1-0.1 0.2-0.2 0.4-0.5 0.7-0.7-0.1-0.3-0.3-0.5-0.4-0.7-0.1-0.1-0.1-0.2-0.1-0.4 0-0.1 0-0.1-0.1-0.2 0 0-0.1 0-0.2 0.1-0.1 0.1-0.3 0.2-0.5 0 0-0.1 0-0.2 0.1-0.3l0.1-0.1c0.3-0.1 0.3-0.4 0.3-0.7v-0.1c-0.1-0.2-0.1-0.3 0.1-0.5 0.3-0.2 0.6-0.6 0.7-0.9 0.1-0.2 0.3-0.3 0.5-0.5 0.2-0.2 0.4-0.4 0.5-0.7h0.1c0.4 0.1 0.5-0.2 0.7-0.5 0-0.1 0-0.2 0.1-0.2 0.2-0.2 0.2-0.4 0.1-0.7 0-0.1-0.1-0.3-0.1-0.4 0-0.1 0-0.1-0.1-0.2-0.3-0.2-0.3-0.4 0-0.6 0.2-0.1 0.2-0.3 0.3-0.4 0.1-0.2 0.1-0.4 0.1-0.7-0.1-0.3-0.1-0.7-0.2-1-0.1-0.4-0.2-0.9-0.3-1.3 0-0.1 0-0.1 0-0.2 0-0.3 0-0.5-0.1-0.8-0.1-0.1-0.1-0.3-0.1-0.4-0.1-0.3-0.2-0.5-0.5-0.6-0.3-0.2-0.7-0.3-1-0.5-0.1-0.1-0.2 0-0.3 0.1-0.1 0.2-0.3 0.4-0.4 0.6-0.1 0.1-0.2 0.3-0.3 0.5-0.2 0.2-0.6 0.4-0.9 0.1-0.1-0.2-0.2-0.3 0-0.5 0.2-0.3 0.4-0.6 0.7-0.8 0.1-0.1 0.2-0.3 0.3-0.4 0.1-0.2 0.1-0.4 0.1-0.6-0.1-0.4-0.2-0.8-0.2-1.3 0-0.5 0-0.9 0.1-1.4 0.1-0.2 0.1-0.5 0.2-0.7 0-0.1 0.1-0.3 0.2-0.4 0.2-0.2 0.4-0.4 0.5-0.7 0.1-0.3 0.3-0.6 0.3-0.9 0-0.1 0.1-0.2 0.1-0.3 0-0.1 0.1-0.3 0.1-0.4-0.1-0.3 0-0.5 0.1-0.7 0.1-0.2 0.2-0.5 0.3-0.7 0.2-0.4 0.2-0.9 0.6-1.3 0.1-0.2 0.2-0.4 0.3-0.6 0.1-0.4 0.3-0.7 0.5-1 0.1-0.1 0.1-0.1 0.1-0.2 0.1-0.3 0.3-0.6 0.5-0.9 0.2-0.3 0.2-0.6 0.3-0.9 0-0.1 0-0.2 0.1-0.3 0.3-0.3 0.2-0.7 0.1-1.1-0.2-0.5-0.3-1-0.2-1.5 0-0.1 0-0.2 0.1-0.2 0.1-0.2 0.1-0.3 0.2-0.5v-0.1c0.2-0.2 0.4-0.5 0.7-0.6 0.4-0.2 0.8-0.3 1.3-0.4 0.4 0 0.8-0.2 1.1-0.6 0-0.1 0.1-0.1 0.2-0.2l0.1-0.1c0.1-0.2 0.2-0.3 0.3-0.4 0.2-0.2 0.4-0.5 0.6-0.7 0.2-0.2 0.4-0.5 0.7-0.8l0.1-0.1c0.2-0.2 0.4-0.4 0.6-0.5 0.2-0.2 0.4-0.4 0.6-0.6 0.2-0.2 0.3-0.4 0.5-0.6 0.2-0.1 0.4-0.3 0.6-0.5 0.2-0.2 0.4-0.4 0.5-0.5 0.2-0.2 0.5-0.4 0.7-0.5 0.2-0.1 0.4-0.2 0.5-0.5 0.1-0.3 0.2-0.5 0.3-0.8 0-0.2 0.1-0.4 0.2-0.6 0.1 0 0.2 0 0.4-0.1-0.1-0.1-0.2-0.1-0.2-0.2 0-0.1 0.1-0.2 0.1-0.2 0-0.1 0.1-0.2 0.1-0.3 0 0 0.1 0 0.1-0.1 0 0 0.1 0 0.1-0.1-0.2 0.1-0.3 0-0.4-0.1 0.1 0.1 0.2 0.1 0.4 0.2 0 0 0.1 0 0.1-0.1 0-0.1 0-0.2 0-0.2 0 0-0.1 0-0.2 0-0.1 0-0.2 0.1-0.3 0.1zM54 70.5c0-0.1-0.1-0.1-0.1-0.2-0.1-0.2 0-0.3 0.1-0.4 0.1-0.1 0.2-0.1 0.4-0.1 0.2 0.1 0.3 0.2 0.3 0.4 0 0.1 0 0.3 0 0.4 0.1 0.4 0.1 0.4 0.5 0.4 0.2 0 0.4 0 0.6 0 0.4-0.1 0.8-0.3 1.2-0.4 0.4-0.1 0.8-0.2 1.2-0.3 0.1 0 0.2 0 0.4 0 0.4 0.1 0.7 0 1-0.2 0.1-0.1 0.3-0.1 0.4-0.2 0.2-0.1 0.4-0.1 0.6-0.2 0.5-0.3 1-0.5 1.4-0.8 0.3-0.2 0.6-0.4 0.9-0.6 0.3-0.2 0.6-0.4 0.9-0.6 0.2-0.1 0.5-0.3 0.7-0.5 0.4-0.3 0.7-0.6 1.1-0.8 0.2-0.1 0.3-0.2 0.4-0.3 0.2-0.1 0.3-0.3 0.5-0.4 0.1-0.1 0.2-0.2 0.4-0.3 0.1-0.1 0.1-0.1 0.1-0.2 0.3-0.2 0.6-0.6 0.8-0.9 0.2-0.2 0.4-0.4 0.6-0.7 0.3-0.3 0.5-0.7 0.8-1.1 0.2-0.2 0.4-0.5 0.5-0.7 0.2-0.4 0.4-0.8 0.7-1.1v-0.1c0.2-0.4 0.4-0.8 0.6-1.2 0.3-0.5 0.5-1.1 0.8-1.6 0.1-0.2 0.2-0.4 0.2-0.6 0.2-0.4 0.3-0.8 0.4-1.2 0-0.1 0-0.1 0.1-0.2 0.3-0.6 0.5-1.2 0.6-1.9 0.1-0.4 0.2-0.8 0.3-1.2 0.2-0.6 0.2-1.1 0.3-1.7 0.1-0.4 0.1-0.9 0.1-1.3 0.1-0.6 0.1-1.3 0-1.9 0-0.5-0.1-1.1-0.1-1.6 0-0.5-0.1-0.9-0.2-1.4-0.1-0.5-0.2-0.9-0.3-1.4-0.2-0.4-0.3-0.8-0.4-1.3-0.1-0.4-0.3-0.7-0.3-1.1 0-0.3-0.1-0.6-0.4-0.7-0.3-0.1-0.5-0.2-0.8-0.4-0.6-0.4-0.9-0.9-0.8-1.5 0-0.3 0.1-0.7 0.2-1 0.1-0.3 0.2-0.6 0-0.8-0.1-0.3-0.3-0.5-0.4-0.7-0.2-0.3-0.3-0.5-0.5-0.7-0.2-0.4-0.4-0.8-0.7-1.1-0.4-0.5-0.7-1-1.2-1.4l-0.1-0.1c-0.3-0.4-0.6-0.8-1-1.1-0.2-0.2-0.4-0.4-0.6-0.5-0.1-0.1-0.2-0.2-0.4-0.3-0.3-0.2-0.6-0.3-0.8-0.5-0.3-0.3-0.7-0.5-1-0.7 0 0-0.1 0-0.1-0.1-0.4-0.2-0.7-0.3-1.1-0.5-0.4-0.2-0.8-0.3-1.2-0.3-0.1 0-0.1 0-0.2 0-0.1-0.1-0.3-0.1-0.4-0.1-0.1 0-0.1 0-0.2 0-0.2-0.1-0.5 0-0.7 0-0.4 0.1-0.8 0.1-1.2-0.1-0.5-0.2-0.9-0.4-1.3-0.6-0.3-0.2-0.5-0.4-0.8-0.6-0.6-0.5-1.2-1.1-1.9-1.6 0.1-0.5-0.1-0.6-0.5-0.6-0.2 0-0.4 0.1-0.6 0.2-0.1 0.1-0.1 0.1-0.2 0.2-0.3 0.2-0.5 0.5-0.8 0.7-0.5 0.3-0.7 0.2-1.1 0-0.1-0.1-0.2-0.2-0.3-0.3-0.2-0.2-0.4-0.5-0.5-0.7-0.2-0.4-0.6-0.4-1-0.4-0.2 0-0.5 0.1-0.7 0.1-0.4 0-0.8 0.2-1 0.5-0.2 0.3-0.4 0.6-0.7 0.9-0.1 0.1-0.3 0.2-0.4 0.4-0.2 0.2-0.4 0.2-0.6 0-0.1-0.1-0.2-0.1-0.3-0.2-0.1 0.1-0.2 0.2-0.2 0.3-0.1 0.2-0.2 0.4-0.3 0.7-0.1 0.3-0.3 0.6-0.5 0.8-0.1 0.1-0.1 0.1-0.2 0.2-0.1 0.2-0.4 0.3-0.6 0.3-0.2 0.2-0.4 0.5-0.5 0.7-0.1 0.2-0.2 0.4-0.3 0.7-0.1 0.1-0.1 0.3-0.2 0.4-0.1 0.2-0.1 0.3-0.1 0.5 0.1 0.3-0.1 0.4-0.4 0.5-0.2 0-0.2 0-0.3 0.2 0 0.3 0.1 0.5 0.2 0.8 0.1 0.1 0.2 0.3 0.2 0.4 0 0.2 0.1 0.3 0.3 0.4 0.1 0.1 0.2 0.2 0.3 0.2 0.1 0 0.1 0.1 0.2 0.1 0.1 0.1 0.2 0 0.2-0.1 0.1-0.3 0.2-0.6 0.2-0.9 0.1-0.4 0.1-0.7 0.2-1.1 0.1-0.2 0.2-0.3 0.3-0.4 0 0 0.1 0 0.2 0v0.1c-0.1 0.5-0.3 1.1-0.4 1.6-0.1 0.2-0.1 0.4-0.2 0.6 0 0.1-0.1 0.2-0.2 0.2-0.2 0.1-0.4 0.2-0.6 0.2-0.1 0-0.2 0-0.3 0-0.2-0.1-0.4-0.3-0.6-0.4-0.1-0.1-0.2-0.2-0.3-0.3-0.1-0.2-0.2-0.4-0.3-0.6-0.1-0.2-0.2-0.3-0.4-0.4-0.1-0.1-0.2-0.1-0.3-0.2-0.2-0.2-0.4-0.3-0.7-0.3-0.1 0-0.3 0-0.4 0-0.1 0-0.3 0.1-0.4 0.2-0.2 0.1-0.3 0.1-0.5 0-0.5-0.2-1-0.1-1.5 0.1-0.2 0.1-0.4 0.2-0.6 0.2-0.5 0-0.9 0-1.4 0-0.5 0-0.9-0.1-1.4-0.2-0.2 0-0.4 0-0.6 0-0.4 0.1-0.5 0.4-0.4 0.8 0.1 0.4 0.2 0.9 0.2 1.3 0 0.3 0 0.6 0 0.9 0 0.2 0 0.3 0 0.5 0 0.3-0.1 0.6-0.1 0.9-0.1 0.6-0.4 1.1-0.8 1.5-0.3 0.3-0.7 0.6-1.1 0.7-0.2 0.1-0.4 0.2-0.7 0.3-0.5 0.2-0.9 0.6-1.2 1.1-0.1 0.2-0.2 0.4-0.3 0.6-0.2 0.3-0.3 0.5-0.5 0.8-0.1 0.2-0.3 0.4-0.4 0.6-0.1 0.2-0.3 0.3-0.3 0.5-0.2 0.4-0.3 0.8-0.5 1.2-0.1 0.2-0.1 0.5-0.2 0.7-0.2 0.4-0.2 0.8-0.2 1.3 0 0.1 0 0.2 0 0.4 0 0.5-0.1 1.1-0.1 1.6 0 0.5 0 1 0.1 1.5 0 0.2 0 0.5 0 0.7 0 0.4 0.1 0.9 0.1 1.3 0 0.4 0 0.9 0.2 1.3v0.1c0.1 0.4 0.1 0.8 0.2 1.2 0 0.1 0 0.2 0.1 0.3 0.2 0.6 0.3 1.1 0.5 1.7 0.1 0.4 0.3 0.8 0.4 1.2 0.1 0.4 0.5 0.8 0.6 1.3v0c0.3 0.6 0.6 1.2 1 1.8 0.1 0.2 0.3 0.4 0.4 0.6 0.2 0.3 0.3 0.6 0.5 0.8 0.1 0.2 0.3 0.4 0.4 0.5 0.1 0.2 0.2 0.4 0.4 0.6 0.2 0.2 0.4 0.5 0.6 0.7 0.3 0.5 0.7 0.9 1.1 1.2 0.2 0.2 0.4 0.3 0.6 0.5 0.1 0.1 0.2 0.1 0.2 0.2 0.1 0.1 0.2 0.2 0.4 0.3 0.8 0.4 1.4 1 2.1 1.6 0.3 0.3 0.6 0.6 1 0.8 0.4 0.3 0.7 0.6 1.2 0.7 0 0 0.1 0 0.1 0.1 0.2 0.2 0.5 0.3 0.7 0.4 0.4 0.2 0.9 0.4 1.3 0.6 0.1 0.1 0.3 0.1 0.4 0.2 0.3 0.1 0.6 0.2 0.9 0.3 0.3 0.1 0.5 0.2 0.8 0.2h0.1c0.2 0.1 0.3 0.1 0.5 0 0.1 0 0.2 0 0.2 0.1 0 0.1 0.1 0.1 0.2 0.1 0.1 0 0.2 0 0.4 0 0.1-0.1 0.1-0.2 0.2-0.4 0.1 0.1 0.2 0.1 0.2 0.1 0.1 0.2 0.3 0.2 0.5 0.2h0.1c0.2 0 0.3 0 0.4-0.1 0-0.1 0.2-0.1 0.3-0.1 0.3 0.1 0.6 0.1 0.9 0.2 0.2 0.1 0.5 0.1 0.6-0.1 0.1-0.1 0.2-0.2 0.4-0.1 0.2 0.1 0.3 0.1 0.5 0 0.1 0 0.2 0 0.2 0 0.3 0.1 0.5 0.1 0.8 0.2 0.4 0.1 0.4 0.1 0.7-0.2 0.1-0.1 0.3-0.1 0.4 0 0.1 0.2 0.1 0.3 0.1 0.5 0.1 0 0.1 0 0.2-0.1 0-0.2 0.1-0.2 0.3-0.3 0.1 0.1 0.1 0.1 0.2 0.1 0.2 0.2 0.3 0.2 0.4-0.1 0-0.1 0-0.2 0.1-0.2 0.1 0 0.2 0.1 0.2 0.1 0.1 0.2 0.3 0.3 0.4 0.5 0.2 0.2 0.5 0.2 0.6 0 0.1-0.1 0.2-0.1 0.3-0.1 0-0.1 0-0.2 0-0.3 0.3 0.2 0.2 0.2 0.1 0.2zM37.4 23.8c0.3 0.1 0.5 0.1 0.6-0.1-0.2 0.1-0.4-0.1-0.6 0.1z" fill="#ff851b" fill-rule="nonzero" stroke="none" stroke-width="1" stroke-linecap="butt" stroke-linejoin="miter" stroke-miterlimit="10" stroke-dasharray="" stroke-dashoffset="0" font-family="none" font-weight="none" font-size="none" text-anchor="none" style="mix-blend-mode: normal" data-fill-palette-color="tertiary"></path></g><g transform="matrix(1,0,0,1,64,139.24164257806305)"><svg viewBox="0 0 192 81.5167148438739" height="81.5167148438739" width="192"><g><svg viewBox="0 0 192 81.5167148438739" height="81.5167148438739" width="192"><g><svg viewBox="0 0 192 81.5167148438739" height="81.5167148438739" width="192"><g transform="matrix(1,0,0,1,0,50.380600061921854)"><svg viewBox="0 0 192 31.13611478195205" height="31.13611478195205" width="192"><g id="textblocktransform"><svg viewBox="0 0 192 31.13611478195205" height="31.13611478195205" width="192" id="textblock"><g><svg viewBox="0 0 192 31.13611478195205" height="31.13611478195205" width="192"><g transform="matrix(1,0,0,1,0,0)"><svg width="192" viewBox="2.3 -32.55 264.83 42.949999999999996" height="31.13611478195205" data-palette-color="#009b7d"><path d="M20.8 0L4.05 0Q3.1 0 2.7-0.5 2.3-1 2.3-1.8L2.3-1.8Q2.4-2.95 2.95-3.6 3.5-4.25 4.6-4.95L4.6-4.95Q6.45-6.2 8.5-7.65 10.55-9.1 12.35-10.88 14.15-12.65 15.28-14.8 16.4-16.95 16.4-19.65L16.4-19.65Q16.4-22.05 15.13-23.38 13.85-24.7 11.55-24.7L11.55-24.7Q9.65-24.7 8.35-23.75 7.05-22.8 7.05-21.05L7.05-21.05Q7.05-20.2 7.45-19.63 7.85-19.05 8.28-18.73 8.7-18.4 8.7-18.3L8.7-18.3Q8.7-18.05 8.1-17.5 7.5-16.95 6.4-16.95L6.4-16.95Q4.8-16.95 3.9-17.95 3-18.95 3-20.4L3-20.4Q3-22.55 4.42-23.9 5.85-25.25 7.93-25.88 10-26.5 12-26.5L12-26.5Q14.2-26.5 16.32-25.78 18.45-25.05 19.83-23.4 21.2-21.75 21.2-19L21.2-19Q21.2-16.7 20.18-14.83 19.15-12.95 17.5-11.4 15.85-9.85 13.93-8.55 12-7.25 10.1-6.1 8.2-4.95 6.75-3.8L6.75-3.8 6.75-3.55 20.15-3.55Q21.15-3.55 21.85-3.33 22.55-3.1 22.55-1.8L22.55-1.8Q22.55 0 20.8 0L20.8 0ZM28 0.15L28 0.15Q27.5 0.15 27.3-0.23 27.1-0.6 27.1-1.05L27.1-1.05Q27.15-1.95 27.5-2 27.85-2.05 28.4-2.05L28.4-2.05Q30.55-2.05 31.82-2.27 33.1-2.5 33.65-3.48 34.2-4.45 34.2-6.65L34.2-6.65 34.2-17.05Q34.25-19.25 34-20.3 33.75-21.35 33.1-21.7 32.45-22.05 31.27-22.03 30.1-22 28.25-22.05L28.25-22.05Q27.75-22.05 27.55-22.43 27.35-22.8 27.35-23.25L27.35-23.25Q27.4-24.15 27.75-24.25 28.1-24.35 28.65-24.35L28.65-24.35Q30.35-24.35 32.17-24.85 34-25.35 35.42-25.93 36.85-26.5 37.25-26.65L37.25-26.65Q37.65-26.8 38.1-26.68 38.55-26.55 38.55-25.6L38.55-25.6 38.55-6.65Q38.55-4.45 39.1-3.48 39.65-2.5 40.92-2.27 42.2-2.05 44.35-2.05L44.35-2.05Q44.9-2.05 45.25-2 45.6-1.95 45.65-1.05L45.65-1.05Q45.65-0.6 45.47-0.23 45.3 0.15 44.75 0.15L44.75 0.15Q43.55 0.1 41.92 0.08 40.3 0.05 38.77 0.03 37.25 0 36.35 0L36.35 0Q35.5 0 33.97 0.03 32.45 0.05 30.82 0.08 29.2 0.1 28 0.15ZM56.85 0.6L56.85 0.6Q53 0.6 50.42-0.78 47.85-2.15 47.85-4.75L47.85-4.75Q47.85-6.2 48.72-7.1 49.6-8 51-8L51-8Q51.9-8 52.47-7.53 53.05-7.05 53.05-6.85L53.05-6.85Q53.05-6.7 52.47-6.18 51.9-5.65 51.9-4.5L51.9-4.5Q51.9-3.1 53.22-2.18 54.55-1.25 57.25-1.25L57.25-1.25Q59.6-1.25 60.92-2.27 62.25-3.3 62.25-5.15L62.25-5.15Q62.25-6.65 61.27-7.48 60.3-8.3 58.77-8.8 57.25-9.3 55.52-9.8 53.8-10.3 52.25-11.05 50.7-11.8 49.72-13.13 48.75-14.45 48.75-16.65L48.75-16.65Q48.75-18.9 50.1-20.35 51.45-21.8 53.55-22.53 55.65-23.25 57.8-23.25L57.8-23.25Q59.65-23.25 61.3-22.73 62.95-22.2 64.02-21.15 65.1-20.1 65.1-18.5L65.1-18.5Q65.1-17.25 64.3-16.25 63.5-15.25 62.1-15.25L62.1-15.25Q61.2-15.25 60.62-15.73 60.05-16.2 60.05-16.4L60.05-16.4Q60.05-16.5 60.42-16.78 60.8-17.05 61.15-17.53 61.5-18 61.5-18.75L61.5-18.75Q61.4-20.2 60.1-20.9 58.8-21.6 57.2-21.6L57.2-21.6Q55.45-21.6 53.95-20.75 52.45-19.9 52.45-18.3L52.45-18.3Q52.45-16.85 53.07-16.05 53.7-15.25 55.07-14.68 56.45-14.1 58.65-13.4L58.65-13.4Q60.85-12.7 62.52-11.95 64.2-11.2 65.12-9.98 66.05-8.75 66.05-6.65L66.05-6.65Q66.05-4.55 64.85-2.9 63.65-1.25 61.57-0.33 59.5 0.6 56.85 0.6ZM78.89 0.85L78.89 0.85Q77.39 0.85 76.04 0.1 74.69-0.65 73.82-2.2 72.94-3.75 72.94-6.1L72.94-6.1 72.94-20.8 70.04-20.7Q69.69-20.7 69.52-20.98 69.34-21.25 69.34-21.6L69.34-21.6Q69.34-22.6 70.04-22.75L70.04-22.75Q71.89-23.1 72.84-23.93 73.79-24.75 74.32-25.9 74.84-27.05 75.29-28.4L75.29-28.4Q75.44-28.8 75.74-28.93 76.04-29.05 76.39-29.05L76.39-29.05Q76.69-29.05 77.07-28.9 77.44-28.75 77.44-28.35L77.44-28.35 77.09-22.65 82.94-23Q83.39-23.05 83.54-22.75 83.69-22.45 83.69-22.05L83.69-22.05Q83.69-21.55 83.52-21.05 83.34-20.55 83.09-20.55L83.09-20.55 77.49-20.7 77.49-5.5Q77.49-4.05 78.12-2.85 78.74-1.65 80.39-1.65L80.39-1.65Q80.94-1.65 81.64-1.75 82.34-1.85 83.14-2.2L83.14-2.2Q83.34-2.3 83.54-2.38 83.74-2.45 83.94-2.45L83.94-2.45Q84.34-2.45 84.54-2.13 84.74-1.8 84.89-1.45L84.89-1.45Q85.04-1 84.64-0.75L84.64-0.75Q83.09 0.25 81.79 0.55 80.49 0.85 78.89 0.85ZM104.64 1L104.64 1Q100.44 1 96.94-1 93.44-3 91.32-6.7 89.19-10.4 89.19-15.55L89.19-15.55Q89.19-20.65 91.19-24.48 93.19-28.3 96.87-30.43 100.54-32.55 105.54-32.55L105.54-32.55Q107.34-32.55 109.27-32.2 111.19-31.85 112.84-31.03 114.49-30.2 115.52-28.85 116.54-27.5 116.54-25.5L116.54-25.5Q116.59-23.35 115.24-21.73 113.89-20.1 111.44-20.1L111.44-20.1Q109.94-20.1 109.32-20.83 108.69-21.55 108.74-21.9L108.74-21.9Q108.74-22.05 109.37-22.43 109.99-22.8 110.62-23.58 111.24-24.35 111.24-25.65L111.24-25.65Q111.24-27.9 109.74-29.23 108.24-30.55 105.49-30.55L105.49-30.55Q102.49-30.55 100.12-28.85 97.74-27.15 96.39-23.88 95.04-20.6 95.04-15.85L95.04-15.85Q95.04-11.85 96.47-8.58 97.89-5.3 100.47-3.38 103.04-1.45 106.44-1.45L106.44-1.45Q109.14-1.45 111.07-2.58 112.99-3.7 114.54-6.2L114.54-6.2Q114.99-7.05 116.14-6.35L116.14-6.35Q116.59-6.05 116.84-5.63 117.09-5.2 116.74-4.75L116.74-4.75Q114.84-2.35 113.14-1.13 111.44 0.1 109.44 0.55 107.44 1 104.64 1ZM127.09 0.6L127.09 0.6Q124.04 0.6 122.21-1.15 120.39-2.9 120.39-5.35L120.39-5.35Q120.39-7.9 121.71-9.35 123.04-10.8 125.21-11.5 127.39-12.2 129.96-12.45 132.54-12.7 134.99-12.85L134.99-12.85 134.99-16.8Q134.99-19.15 133.81-20.48 132.64-21.8 129.84-21.8L129.84-21.8Q128.44-21.8 127.21-20.9 125.99-20 125.99-18.3L125.99-18.3Q125.99-17.5 126.39-16.95 126.79-16.4 127.19-16.1 127.59-15.8 127.59-15.7L127.59-15.7Q127.59-15.5 127.01-14.98 126.44-14.45 125.44-14.45L125.44-14.45Q123.89-14.45 123.04-15.6 122.19-16.75 122.19-18.15L122.19-18.15Q122.19-20.05 123.36-21.15 124.54-22.25 126.39-22.75 128.24-23.25 130.14-23.25L130.14-23.25Q132.39-23.25 134.51-22.7 136.64-22.15 138.01-20.6 139.39-19.05 139.39-15.95L139.39-15.95 139.39-4.3Q139.44-3.8 139.64-3.1 139.84-2.4 140.41-1.88 140.99-1.35 141.99-1.35L141.99-1.35Q142.34-1.35 142.54-1.23 142.74-1.1 142.74-0.55L142.74-0.55Q142.74-0.1 142.24 0.15 141.74 0.4 141.09 0.5 140.44 0.6 139.99 0.6L139.99 0.6Q138.14 0.6 136.69-0.48 135.24-1.55 134.99-3.45L134.99-3.45Q133.89-1.45 131.71-0.43 129.54 0.6 127.09 0.6ZM128.69-2.1L128.69-2.1Q130.39-2.1 131.81-2.95 133.24-3.8 134.11-5.28 134.99-6.75 134.99-8.55L134.99-8.55 134.99-11.4Q129.84-11.05 127.64-9.75 125.44-8.45 125.44-5.5L125.44-5.5Q125.44-2.1 128.69-2.1ZM145.99 0.15L145.99 0.15Q145.64 0.15 145.41-0.18 145.19-0.5 145.19-0.85L145.19-0.85Q145.24-1.6 145.56-1.68 145.89-1.75 146.34-1.75L146.34-1.75Q147.74-1.75 148.26-2.23 148.79-2.7 148.86-3.5 148.94-4.3 148.94-5.15L148.94-5.15 148.94-16.6Q148.94-17.5 148.86-18.28 148.79-19.05 148.29-19.53 147.79-20 146.39-20L146.39-20Q145.94-20 145.56-20.13 145.19-20.25 145.19-21L145.19-21Q145.19-21.75 145.99-21.9L145.99-21.9Q148.29-22.25 149.51-22.6 150.74-22.95 151.36-23.2 151.99-23.45 152.49-23.5L152.49-23.5Q152.89-23.55 153.16-23.35 153.44-23.15 153.44-22.55L153.44-22.55 153.44-19.4 153.59-19.4Q154.59-20.35 155.54-21.23 156.49-22.1 157.84-22.68 159.19-23.25 161.29-23.25L161.29-23.25Q163.74-23.25 165.49-22.23 167.24-21.2 168.04-19.4L168.04-19.4 168.14-19.4Q169.14-20.35 170.24-21.23 171.34-22.1 172.84-22.68 174.34-23.25 176.44-23.25L176.44-23.25Q179.84-23.25 181.84-21.2 183.84-19.15 183.84-15.8L183.84-15.8 183.84-5.15Q183.84-4.3 183.91-3.5 183.99-2.7 184.51-2.23 185.04-1.75 186.44-1.75L186.44-1.75Q186.89-1.75 187.21-1.68 187.54-1.6 187.59-0.85L187.59-0.85Q187.59-0.5 187.39-0.18 187.19 0.15 186.79 0.15L186.79 0.15Q185.34 0.05 184.11 0.03 182.89 0 181.54 0L181.54 0Q180.19 0 178.99 0.03 177.79 0.05 176.34 0.15L176.34 0.15Q175.94 0.15 175.74-0.18 175.54-0.5 175.54-0.85L175.54-0.85Q175.59-1.6 175.91-1.68 176.24-1.75 176.69-1.75L176.69-1.75Q178.09-1.75 178.61-2.23 179.14-2.7 179.21-3.5 179.29-4.3 179.29-5.15L179.29-5.15 179.29-15.75Q179.29-17.4 178.56-18.45 177.84-19.5 176.74-20 175.64-20.5 174.49-20.5L174.49-20.5Q172.79-20.5 171.59-19.88 170.39-19.25 169.69-18.45 168.99-17.65 168.69-17.05L168.69-17.05 168.69-5.15Q168.69-4.3 168.71-3.5 168.74-2.7 169.21-2.23 169.69-1.75 171.09-1.75L171.09-1.75Q171.59-1.75 171.89-1.68 172.19-1.6 172.24-0.85L172.24-0.85Q172.24-0.5 172.04-0.18 171.84 0.15 171.44 0.15L171.44 0.15Q169.99 0.05 168.84 0.03 167.69 0 166.34 0L166.34 0Q165.04 0 163.91 0.03 162.79 0.05 161.34 0.15L161.34 0.15Q160.94 0.15 160.74-0.18 160.54-0.5 160.54-0.85L160.54-0.85Q160.59-1.6 160.89-1.68 161.19-1.75 161.69-1.75L161.69-1.75Q163.09-1.75 163.56-2.23 164.04-2.7 164.06-3.5 164.09-4.3 164.09-5.15L164.09-5.15 164.09-15.75Q164.09-18.25 162.59-19.38 161.09-20.5 159.34-20.5L159.34-20.5Q157.59-20.5 156.39-19.88 155.19-19.25 154.49-18.45 153.79-17.65 153.49-17.05L153.49-17.05 153.49-5.15Q153.49-4.3 153.56-3.5 153.64-2.7 154.16-2.23 154.69-1.75 156.09-1.75L156.09-1.75Q156.54-1.75 156.86-1.68 157.19-1.6 157.24-0.85L157.24-0.85Q157.24-0.5 157.04-0.18 156.84 0.15 156.44 0.15L156.44 0.15Q154.99 0.05 153.76 0.03 152.54 0 151.19 0L151.19 0Q149.84 0 148.64 0.03 147.44 0.05 145.99 0.15ZM189.98 10.4L189.98 10.4Q189.63 10.4 189.41 10.08 189.18 9.75 189.18 9.4L189.18 9.4Q189.23 8.65 189.56 8.58 189.88 8.5 190.33 8.5L190.33 8.5Q191.68 8.5 192.21 8.03 192.73 7.55 192.83 6.75 192.93 5.95 192.93 5.1L192.93 5.1 192.93-16.6Q192.93-17.5 192.86-18.28 192.78-19.05 192.28-19.53 191.78-20 190.38-20L190.38-20Q189.93-20 189.56-20.13 189.18-20.25 189.18-21L189.18-21Q189.18-21.75 189.98-21.9L189.98-21.9Q192.28-22.25 193.51-22.6 194.73-22.95 195.36-23.2 195.98-23.45 196.48-23.5L196.48-23.5Q196.88-23.55 197.16-23.35 197.43-23.15 197.43-22.55L197.43-22.55 197.43-20.15 197.58-20.15Q198.98-21.45 200.93-22.35 202.88-23.25 204.68-23.25L204.68-23.25Q207.73-23.25 210.08-21.75 212.43-20.25 213.78-17.57 215.13-14.9 215.13-11.35L215.13-11.35Q215.13-7.75 213.48-5.05 211.83-2.35 209.23-0.88 206.63 0.6 203.68 0.6L203.68 0.6Q201.43 0.6 200.06 0.13 198.68-0.35 197.68-0.95L197.68-0.95 197.48-0.95 197.48 5.1Q197.48 5.95 197.58 6.75 197.68 7.55 198.23 8.03 198.78 8.5 200.08 8.5L200.08 8.5Q200.53 8.5 200.86 8.58 201.18 8.65 201.23 9.4L201.23 9.4Q201.23 9.75 201.03 10.08 200.83 10.4 200.43 10.4L200.43 10.4Q198.98 10.3 197.76 10.28 196.53 10.25 195.18 10.25L195.18 10.25Q193.83 10.25 192.63 10.28 191.43 10.3 189.98 10.4ZM203.28-1.1L203.28-1.1Q205.23-1.1 206.53-2.08 207.83-3.05 208.61-4.58 209.38-6.1 209.71-7.88 210.03-9.65 210.03-11.2L210.03-11.2Q210.03-13.55 209.31-15.73 208.58-17.9 207.01-19.33 205.43-20.75 202.88-20.75L202.88-20.75Q200.98-20.75 199.73-19.98 198.48-19.2 197.48-18.15L197.48-18.15 197.48-4.75Q198.03-3.45 199.51-2.27 200.98-1.1 203.28-1.1ZM229.23 0.6L229.23 0.6Q225.83 0.6 223.83-1.45 221.83-3.5 221.83-6.85L221.83-6.85 221.83-16.1Q221.83-17 221.76-17.78 221.68-18.55 221.18-19.03 220.68-19.5 219.28-19.5L219.28-19.5Q218.83-19.5 218.46-19.63 218.08-19.75 218.08-20.5L218.08-20.5Q218.08-21.25 218.88-21.4L218.88-21.4Q221.18-21.75 222.41-22.1 223.63-22.45 224.28-22.7 224.93-22.95 225.43-23L225.43-23Q225.83-23.05 226.11-22.85 226.38-22.65 226.38-22.05L226.38-22.05 226.38-6.9Q226.38-5.25 227.11-4.2 227.83-3.15 228.93-2.65 230.03-2.15 231.18-2.15L231.18-2.15Q232.93-2.15 234.23-2.78 235.53-3.4 236.33-4.23 237.13-5.05 237.38-5.6L237.38-5.6 237.38-16.1Q237.38-17 237.31-17.78 237.23-18.55 236.73-19.03 236.23-19.5 234.83-19.5L234.83-19.5Q234.38-19.5 234.01-19.63 233.63-19.75 233.63-20.5L233.63-20.5Q233.63-21.25 234.43-21.4L234.43-21.4Q236.73-21.75 237.96-22.1 239.18-22.45 239.83-22.7 240.48-22.95 240.98-23L240.98-23Q241.38-23.05 241.66-22.85 241.93-22.65 241.93-22.05L241.93-22.05 241.93-4.75Q241.93-1.8 245.88-1.8L245.88-1.8Q246.43-1.8 246.58-1.5 246.73-1.2 246.73-0.85L246.73-0.85Q246.73-0.15 245.88 0L245.88 0 237.83 0.55Q237.48 0.55 237.43 0.25 237.38-0.05 237.38-0.45L237.38-0.45 237.38-3.25 237.28-3.25Q236.33-2.35 235.26-1.45 234.18-0.55 232.76 0.03 231.33 0.6 229.23 0.6ZM257.93 0.6L257.93 0.6Q254.08 0.6 251.5-0.78 248.93-2.15 248.93-4.75L248.93-4.75Q248.93-6.2 249.8-7.1 250.68-8 252.08-8L252.08-8Q252.98-8 253.55-7.53 254.13-7.05 254.13-6.85L254.13-6.85Q254.13-6.7 253.55-6.18 252.98-5.65 252.98-4.5L252.98-4.5Q252.98-3.1 254.3-2.18 255.63-1.25 258.33-1.25L258.33-1.25Q260.68-1.25 262-2.27 263.33-3.3 263.33-5.15L263.33-5.15Q263.33-6.65 262.35-7.48 261.38-8.3 259.85-8.8 258.33-9.3 256.6-9.8 254.88-10.3 253.33-11.05 251.78-11.8 250.8-13.13 249.83-14.45 249.83-16.65L249.83-16.65Q249.83-18.9 251.18-20.35 252.53-21.8 254.63-22.53 256.73-23.25 258.88-23.25L258.88-23.25Q260.73-23.25 262.38-22.73 264.03-22.2 265.1-21.15 266.18-20.1 266.18-18.5L266.18-18.5Q266.18-17.25 265.38-16.25 264.58-15.25 263.18-15.25L263.18-15.25Q262.28-15.25 261.7-15.73 261.13-16.2 261.13-16.4L261.13-16.4Q261.13-16.5 261.5-16.78 261.88-17.05 262.23-17.53 262.58-18 262.58-18.75L262.58-18.75Q262.48-20.2 261.18-20.9 259.88-21.6 258.28-21.6L258.28-21.6Q256.53-21.6 255.03-20.75 253.53-19.9 253.53-18.3L253.53-18.3Q253.53-16.85 254.15-16.05 254.78-15.25 256.15-14.68 257.53-14.1 259.73-13.4L259.73-13.4Q261.93-12.7 263.6-11.95 265.28-11.2 266.2-9.98 267.13-8.75 267.13-6.65L267.13-6.65Q267.13-4.55 265.93-2.9 264.73-1.25 262.65-0.33 260.58 0.6 257.93 0.6Z" opacity="1" transform="matrix(1,0,0,1,0,0)" fill="#009b7d" class="wordmark-text-0" data-fill-palette-color="primary" id="text-0"></path></svg></g></svg></g></svg></g></svg></g><g transform="matrix(1,0,0,1,58.90507704426057,0)"><svg viewBox="0 0 74.18984591147886 43.03011062865774" height="43.03011062865774" width="74.18984591147886"><g><svg version="1.1" xmlns:rdf="http://www.w3.org/1999/02/22-rdf-syntax-ns#" xmlns:cc="http://creativecommons.org/ns#" xmlns:sodipodi="http://sodipodi.sourceforge.net/DTD/sodipodi-0.dtd" xmlns:dc="http://purl.org/dc/elements/1.1/" xmlns:inkscape="http://www.inkscape.org/namespaces/inkscape" xmlns:svg="http://www.w3.org/2000/svg" xmlns="http://www.w3.org/2000/svg" xmlns:xlink="http://www.w3.org/1999/xlink" x="0" y="0" viewBox="0 21 100 58" enable-background="new 0 21 100 58" xml:space="preserve" height="43.03011062865774" width="74.18984591147886" class="icon-icon-0" data-fill-palette-color="accent" id="icon-0"><path d="M98.031 36.094C96.986 35.219 95.723 34.586 94.187 34.063L60.437 22.563C57.365 21.515 53.689 21 50 21S42.634 21.515 39.562 22.562L5.812 34.062C4.276 34.585 3.013 35.218 1.968 36.093S0 38.276 0 39.875 0.924 42.813 1.969 43.687 4.277 45.164 5.813 45.687L39.563 57.187C45.707 59.282 54.294 59.282 60.438 57.187L94.188 45.687C95.724 45.164 96.987 44.562 98.032 43.687S100 41.474 100 39.875 99.076 36.969 98.031 36.094M92.438 40.594L58.719 52.094C54.246 53.618 45.753 53.618 41.281 52.094L7.562 40.594A9 9 0 0 1 5.937 39.875 9 9 0 0 1 7.562 39.156L41.281 27.656C43.517 26.894 46.762 26.5 50 26.5S56.482 26.894 58.719 27.656L92.438 39.156A9 9 0 0 1 94.063 39.875 9 9 0 0 1 92.438 40.594" fill="#ffbf5d" data-fill-palette-color="accent"></path><path d="M76.25 64.062V66.156C76.25 66.554 76.033 67.158 74.969 68.062S72.081 69.966 69.719 70.812C64.994 72.504 58.145 73.624 50.531 73.624H49.469C41.856 73.624 35.009 72.505 30.281 70.812 27.918 69.966 26.095 68.966 25.031 68.062S23.75 66.554 23.75 66.156V57.312L18.375 55.468V66.156C18.375 68.575 19.727 70.624 21.531 72.156S25.694 74.882 28.469 75.875C34.018 77.861 41.338 79 49.469 79H50.531C58.662 79 65.984 77.862 71.531 75.875 74.304 74.881 76.665 73.688 78.469 72.156S81.625 68.574 81.625 66.156V55.468L76.25 57.312z" fill="#ffbf5d" data-fill-palette-color="accent"></path></svg></g></svg></g><g></g></svg></g></svg></g></svg></g></svg></g><defs></defs></svg><rect width="320" height="360" fill="none" stroke="none" visibility="hidden"></rect></g></svg></g></svg>