<?xml version="1.0" encoding="UTF-8"?>
<svg version="1.1" viewBox="0 0 2048 2048" width="1280" height="1280" xmlns="http://www.w3.org/2000/svg">
<path transform="translate(352,28)" d="m0 0h27l12 3 12 7 9 8 9 14 3 11v133h396v-138l7-14 7-9 11-8 10-5 8-2h28l9 2 10 5 11 8 9 12 5 11 1 8v130h395v-128l1-11 6-12 9-11 8-6 12-6 8-2h27l12 3 11 6 10 9 6 8 5 10 2 11v129h239l15 2 23 6 11 5 15 8 14 10 7 6v2l4 2 11 13 9 14 8 16 6 18 2 10 2 17 7 52 11 71 58 377 12 82 100 650 25 162 13 93 6 49 2 17v25l-4 14-9 20-8 14-10 13-15 15-16 11-17 9-17 6-20 4-10 1-148 1h-1645l-22-3-15-4-13-5-20-11-17-14-10-10-12-16-11-21-9-27v-1596l4-10 7-19 10-18 14-18 8-8 13-10 11-7 16-8 18-6 13-3 9-1h185v-137l8-16 9-10 10-7 12-5z" fill="#E8E8E8"/>
<path transform="translate(352,28)" d="m0 0h27l12 3 12 7 9 8 9 14 3 11v133h396v-138l7-14 7-9 11-8 10-5 8-2h28l9 2 10 5 11 8 9 12 5 11 1 8v130h395v-128l1-11 6-12 9-11 8-6 12-6 8-2h27l12 3 11 6 10 9 6 8 5 10 2 11v129h239l15 2 23 6 11 5 15 8 14 10 7 6v2l4 2 11 13 9 14 8 16 6 18 2 10 2 17-1 460-1 10-25 1h-1681l-27 1-79-1v-492l4-10 7-19 10-18 14-18 8-8 13-10 11-7 16-8 18-6 13-3 9-1h185v-137l8-16 9-10 10-7 12-5z" fill="#EA493A"/>
<path transform="translate(1814,339)" d="m0 0h1l4 31 10 67 11 71 28 182 25 163 12 82 27 175 70 455 25 162 13 93 6 49 2 17v25l-4 14-9 20-8 14-10 13-15 15-16 11-17 9-17 6-20 4-10 1-148 1h-93v-2l24-1 18-5 16-8 6-2v-2h3v-2l9-5 6-5 11-9 12-14 5-9h2l2-5 6-12 4-10 3-10 3-16 1-13v-1096l1-439z" fill="#A8A9A9"/>
<path transform="translate(1809,306)" d="m0 0 2 4 3 23-1 460-1 10-25 1h-1681l-27 1-79-1v-116h29l52-1 1718-1 13 1-1-359-2-14z" fill="#F77D76"/>
<path transform="translate(0,804)" d="m0 0h81v373l1 637 1 56 2 30 3 19 5 15 8 16 9 14 9 10 5 6 8 7 14 10 25 13 16 6 8 1-2 2h-64l-22-3-15-4-13-5-20-11-17-14-10-10-12-16-11-21-9-27z" fill="#CDCCCC"/>
<path transform="translate(1896,935)" d="m0 0 4 1h3l2-1 27 175 70 455 25 162 13 93 6 49 2 17v25l-4 14-9 20-8 14-10 13-15 15-16 11-17 9-17 6-20 4-10 1h-122l2-4 10-6 10-5 15-10 12-10h2v-2l8-7 13-16 8-13 7-16 4-14 2-15 1-23v-339l1-178 1-320z" fill="#B9B9B9"/>
<path transform="translate(1375,28)" d="m0 0h27l12 3 11 6 10 9 6 8 5 10 2 11v241l1 10 13 13 8 9 9 14 7 17 4 14 1 6v15l-3 18-5 15-8 16-12 16-8 8-15 10-12 6-16 5-16 3h-11l-16-2-21-7-16-9-10-8-11-11-9-13-8-16-5-16-2-11v-13l3-17 6-18 6-12 8-11 9-11 11-11v-65l-1-48-1-7 3-1v-128l1-11 6-12 9-11 8-6 12-6z" fill="#434556"/>
<path transform="translate(352,28)" d="m0 0h27l12 3 12 7 9 8 9 14 3 11v230l1 24 7 8 12 12 9 14 7 14 5 15 2 12v20l-4 18-5 13-8 14-10 13-7 7-14 10-16 8-15 5-10 2-17 1-16-2-21-7-11-6-11-8-10-9-9-11-8-14-6-15-4-15-1-5v-21l6-22 7-16 6-9 9-11 6-7 8-7 1-6v-83l1-170 8-16 9-10 10-7 12-5z" fill="#434556"/>
<path transform="translate(863,28)" d="m0 0h28l9 2 10 5 11 8 9 12 5 11 1 8v228l1 23 7 8 9 9 11 15 8 17 4 11 3 16v17l-3 16-6 16-8 15-13 16-11 9-14 9-14 6-14 4-16 2-16-1-16-4-16-6-16-10-13-12-9-11-8-14-6-15-4-15-1-7v-10l4-20 6-18 7-13 11-14 6-7 8-7 2-3v-88l1-170 7-14 7-9 11-8 10-5z" fill="#434556"/>
<path transform="translate(112,208)" d="m0 0 4 2 3 3 1-2 3 1h-2v2h7l4 2 4 1v-2l5 1 2 6v3l-4 1-2 4-3 1v3l-6 5h-2l-2 4-3 3h-2l1 3-4 2-4 6h-2v2h-2v3h-2l-3 9h-2l-1 5-4 8h-2l-1 6-3 11h-2l-1 11-2 18-1 11v17l-1 7v7l1 6-1 46 1 147-1 11v46l1 7-1 3 1 13 1 6h-2l2 4v6l2 5 3 1v3l5 3v2l4-1v2h12l5 2v2h108v1l-123 1h-21l-64 1-16-1v-376l4-10 7-19 10-18 14-18 8-8 13-10 11-7 16-8 12-4 8-1 5 1z" fill="#DF3D2A"/>
<path transform="translate(1414,32)" d="m0 0 6 2 10 7 7 7 7 11 3 8 1 8v241l1 11-1 36-3 10-8 12-9 9-9 5-6-2-11-9-6-8-5-13-1-11-1-38-1-37v-88l1-77 1-34 1-16 4-11 6-10 2-3h2l2-4 4-5z" fill="#565960"/>
<path transform="translate(902,32)" d="m0 0 5 1 14 10 9 12 5 11 1 8v228l1 23 1 3h-2v35l-4 12-8 11-9 9-8 4-5-2-11-8-5-6-5-10-2-9-1-27-1-44v-159l2-66 2-9 8-14 4-5h2l2-4 3-3z" fill="#565960"/>
<path transform="translate(390,31)" d="m0 0 10 5 9 7 8 10 5 10 2 8v230l1 24 1 3h-2v36l-3 10-9 13-8 7-6 4-5 1-11-8-5-5-6-9-3-9-2-23v-17l-1-46v-71l1-110 1-32 4-13 8-13 8-9h3z" fill="#565960"/>
<path transform="translate(816,328)" d="m0 0h3l1 2 1 38 5 12 6 8 14 10 13 6 3 1 2 9 5 25 5 13 10 16 7 8v2h2l4 5 6 4v2l8 4h10l1 2 4 1v2l-16 7-14 4-16 2-16-1-16-4-16-6-16-10-13-12-9-11-8-14-6-15-4-15-1-7v-10l4-20 6-18 7-13 11-14 6-7z" fill="#2E3243"/>
<path transform="translate(1328,328)" d="m0 0 3 1 2 39 4 11 6 8 8 7 16 9 7 3 1 1 3 21 4 15 8 17 11 14 2 4h2l6 7 9 7 6 2 7 1v4l-5 4-16 5-16 3h-11l-16-2-21-7-16-9-10-8-11-11-9-13-8-16-5-16-2-11v-13l3-17 6-18 6-12 8-11 9-11 7-7z" fill="#2E3243"/>
<path transform="translate(304,328)" d="m0 0h3l1 4 1 35 5 13 9 10 11 8 13 6 4 2 4 24 5 17 9 17 13 16 11 10 7 4 9-1 1 5-4 4-18 6-10 2-17 1-16-2-21-7-11-6-11-8-10-9-9-11-8-14-6-15-4-15-1-5v-21l6-22 7-16 6-9 9-11 6-7z" fill="#2E3243"/>
<path transform="translate(0,688)" d="m0 0h79l1 5 1 44v65h1599v1l-1574 1-27 1-79-1z" fill="#E66A66"/>
<path transform="translate(1135,1741)" d="m0 0h110l10 3 9 7 6 10 2 12-2 9-6 10-11 8-6 2-16 1h-88l-13-2-10-5-7-8-4-9-1-10 3-10 6-9 8-6z" fill="#55585F"/>
<path transform="translate(286,1741)" d="m0 0h109l10 3 8 6 6 9 3 10-1 10-5 10-4 5-9 6-6 2-18 1h-87l-12-2-8-4-6-5-6-10-1-3v-14l4-10 6-7 8-5z" fill="#55585F"/>
<path transform="translate(1141,1242)" d="m0 0h99l12 2 8 5 5 5 5 8 2 9-1 9-5 10-5 6-10 6-12 2h-101l-11-3-9-6-6-7-3-8-1-10 3-10 6-9 9-6 5-2z" fill="#55585F"/>
<path transform="translate(852,1741)" d="m0 0h110l11 4 8 6 6 11 1 4v12l-6 12-7 7-8 4-4 1-16 1h-86l-11-1-10-4-9-8-5-10-1-4v-9l4-11 9-10 9-4z" fill="#55585F"/>
<path transform="translate(292,1242)" d="m0 0h98l12 2 9 5 7 9 3 7 1 11-3 10-7 9-9 6-6 2-9 1h-100l-13-4-9-7-5-7-2-6v-14l4-9 5-7 10-6 3-1z" fill="#55585F"/>
<path transform="translate(857,1242)" d="m0 0h101l10 2 8 4 8 9 3 6 1 5v11l-4 9-7 8-9 6-12 2h-101l-9-2-10-6-7-8-4-11v-8l3-10 6-8 8-6 5-2z" fill="#55585F"/>
<path transform="translate(1424,1242)" d="m0 0h99l12 2 9 5 6 7 4 9 1 5v7l-4 11-8 9-9 5-12 2h-100l-9-2-8-4-7-6-5-10-1-3v-12l4-10 7-8 8-5z" fill="#55585F"/>
<path transform="translate(569,1741)" d="m0 0h110l11 4 8 7 5 8 2 8v8l-4 11-8 9-9 5-4 1-19 1h-84l-14-2-9-5-7-7-4-8-1-3v-11l3-9 4-6 8-7 7-3z" fill="#55585F"/>
<path transform="translate(573,1242)" d="m0 0h101l11 2 9 5 6 7 4 8 1 13-3 9-6 8-8 6-8 3-8 1h-100l-9-2-9-5-7-7-4-7-1-4v-12l4-10 8-9 10-5z" fill="#55585F"/>
<path transform="translate(852,993)" d="m0 0h110l10 3 9 7 5 8 2 7v12l-6 12-7 7-8 4-4 1-46 1h-54l-16-2-10-5-8-9-4-11v-9l4-11 7-8 7-5z" fill="#55585F"/>
<path transform="translate(865,1491)" d="m0 0h85l14 1 10 4 8 7 5 10 1 4v11l-4 10-7 8-8 5-7 2h-110l-9-3-9-6-6-8-3-10v-8l4-11 6-8 10-6 4-1z" fill="#55585F"/>
<path transform="translate(1432,1491)" d="m0 0h86l13 1 9 4 8 7 5 8 2 7v9l-4 10-9 10-9 5-5 1h-110l-11-4-9-8-6-12v-13l4-10 7-8 9-5 4-1z" fill="#55585F"/>
<path transform="translate(1149,1491)" d="m0 0h85l13 1 10 4 8 7 4 7 2 5 1 10-4 12-9 10-10 5-4 1h-110l-11-4-8-7-4-5-3-7-1-10 2-9 6-9 8-7 8-3z" fill="#55585F"/>
<path transform="translate(1135,993)" d="m0 0h111l11 4 8 7 6 12 1 9-2 9-6 9-9 8-9 3-51 1h-47l-15-1-10-4-7-6-5-7-3-11 1-10 6-12 8-7 7-3z" fill="#55585F"/>
<path transform="translate(568,993)" d="m0 0h111l11 4 8 7 5 8 2 8v8l-3 9-7 9-9 6-6 2-51 1h-51l-11-1-12-5-8-8-4-8-1-4v-11l4-10 4-6 10-7z" fill="#55585F"/>
<path transform="translate(581,1491)" d="m0 0h85l14 1 9 3 7 5 6 9 3 10v7l-3 9-4 6-5 5-7 5-7 2h-111l-9-3-9-7-6-9-2-6v-11l4-11 7-8 9-5 4-1z" fill="#55585F"/>
<path transform="translate(1419,993)" d="m0 0h110l11 4 8 7 5 9 2 6v9l-4 10-6 8-9 6-6 2-53 1h-47l-13-1-10-4-8-7-5-7-2-6v-13l4-9 4-6 8-6 5-2z" fill="#55585F"/>
<path transform="translate(297,1491)" d="m0 0h87l13 1 10 4 8 7 6 12 1 10-3 10-6 8-7 6-6 3-5 1h-110l-11-4-10-9-4-8-1-3v-14l6-12 9-8 9-3z" fill="#55585F"/>
<path transform="translate(292,1242)" d="m0 0h98l12 2 9 5 7 9 3 7 1 11-2 6-1-4v-5l-3-4-3-7-1-2h-2l-5-7-7-4-43-1h-44l-4-1-8 1h-16l-6 2-6 4-4 5h-2l-1 7-1 4-1 10 3 7-1 3-4-7-1-3v-14l4-9 5-7 10-6 3-1z" fill="#444655"/>
<path transform="translate(573,1242)" d="m0 0h101l11 2 9 5 6 7 4 8 1 13-3 9-6 8-8 6-8 3h-26v-1l21-1 4-3 5-1v-2l5-1 1-3h3v-2h3v-2h2l1-3 2-2 1-7-1-4-3-7-4-4-2-4-2-1v-2l-5-2-7-3-5 1-26-1h-13l-3-1-8 1-3-1-5 1-5-1h-43l-1-1-10 5-5 5-6 11-2 2v-6l6-10 8-7 7-3z" fill="#454756"/>
<path transform="translate(936,204)" d="m0 0h393l-1 2-8 1h-238l-146-1z" fill="#EEA5A1"/>
<path transform="translate(424,204)" d="m0 0h396l-1 2-71 1h-176l-148-1z" fill="#EEA6A2"/>
<path transform="translate(1424,1242)" d="m0 0h99l12 2 9 5 6 7 4 9 1 5v7l-2 5h-1l-1-7-2-5v-4l-2-1-3-5-5-4v-2l-5-2-4-3-37-1h-11l-3-1-5 1-21-1h-36l-8 3-5 2-1 3-4 4h-2l-3 12h-1v-8l5-9 7-7 9-4z" fill="#444756"/>
<path transform="translate(1141,1242)" d="m0 0h99l12 2 8 5 5 5 5 8 2 9-1 9-2 4h-1v-10l-3-10-3-3v-2h-2l-6-7-8-4h-23l-3-1-17 1h-13l-21-1h-32l-4-2v2l-8 3-8 6-2 5-3 3-2 13-2-3 1-9 5-10 4-5 10-6z" fill="#444656"/>
<path transform="translate(857,1242)" d="m0 0h101l10 2 8 4 8 9 3 6 1 5v11l-4 9-2 1 2-8v-13l-3-4v-2h-2l-1-5-4-1-5-5-8-3h-55l-3-1h-52v-2h-2v2l-6 1-1 2-6 4-3 1-2 6-4 9h-1v-6l5-10 9-8 7-3z" fill="#444756"/>
<path transform="translate(297,1491)" d="m0 0h87l13 1 10 4 8 7 6 12 1 10-2 2v-5l-3-1-2-7-1-4-4-1v-4h-2v-2l-6-2-5-3v-2h-111l-6 2-5 1-1 2-7 6h-2l-1 4-2 5v15l6 10 4 4 5 2v2l2 1-5-1-10-9-4-8-1-3v-14l6-12 9-8 9-3z" fill="#444656"/>
<path transform="translate(581,1491)" d="m0 0h85l14 1 9 3 7 5 6 9 3 10v7l-3 9-4 6-5 5-7 5-3 1h-7l4-2 7-2 2-4 2-3 4-2h2l4-8v-7l-2-7-2-6-3-1-2-3-4-4v-2l-6-2-3-2-23-1h-80-3l-5-1-9 3-3 2-1 3-4 2-3 3-3 6-1-3 4-8 8-7 10-4z" fill="#444656"/>
<path transform="translate(1432,1491)" d="m0 0h86l13 1 9 4 8 7 5 8 2 7v9l-4 10-9 10-7 4h-5l3-2 6-3 1-2h3l2-7h3l4-8-1-7-2-3v-5h-2l-1-4-4-1v-3l-4-2-3-3-5-2-4-2-10-1h-88l-9-1-9 3-9 6-2 3h-2v3h-2l2-5 6-7 9-5 4-1z" fill="#444656"/>
<path transform="translate(865,1491)" d="m0 0h85l14 1 10 4 8 7 5 10 1 4v11l-4 10-7 8-8 5-9 1 10-5 4-1v-2l3-2v-3h3l1-2h2l1-10-1-9-3-6-2-3v-2l-4-1v-2h-2v-3l-8-2-1-2-23-1h-84l-5-1-6 3-6 1v2l-5 5-3 1-1 4-2 1 1-5 6-8 10-6 4-1z" fill="#444656"/>
<path transform="translate(1149,1491)" d="m0 0h85l13 1 10 4 8 7 4 7 2 5 1 10-4 12-4 3 2-5 1-3v-8h2l-3-9-7-8-6-6-5-2v-2l-17-1h-87l-10-2v2l-7 2-2-2 3-3 4-1z" fill="#444656"/>
<path transform="translate(1419,993)" d="m0 0h110l11 4 8 7 5 9 2 6v9l-4 10-6 8-9 6-6 2h-51v-1l43-1 7-1 2-3 7-1 3-5 5-3h2l3-7v-7l-1-5v-3l-2-1-4-6-4-3-1-3-5-2v-2l-11-2-3-1v-2l-69 1h-31l-5 2-7 1-4 4-2 1-3 5-3 1 2-6 8-7 7-3z" fill="#414354"/>
<path transform="translate(568,993)" d="m0 0h111l11 4 8 7 5 8 2 8v8l-3 9-7 9-9 6-4-1 2-3h6v-2h2v-2h3l7-14-1-7-2-6-3-4-2-2-3-5-1-3-4-1-10-4-1-2-106-1v2l-6 2v-2l-6 4-5 5-3 1-1 5-1 3h-2v17l5 9 8 7 12 4v1l-9-1-8-5-8-9-3-9v-11l4-10 4-6 10-7z" fill="#454756"/>
<path transform="translate(1135,993)" d="m0 0h111l11 4 8 7 6 12 1 9-2 9-6 9-9 8-9 3h-38v-1l31-1 8-1 1-2 5-2 3-4h4l1-3 4-2 4-10-2-8-2-6h-2l-3-6-7-6v-2h-6l-5-3v-2l-105 1-7 3h-6l-1 3-6 5h-2v4l-2 1-2 3 1-6 4-6 7-6 7-3z" fill="#424454"/>
<path transform="translate(1135,1741)" d="m0 0h110l10 3 9 7 6 10 2 12-2 9-6 10-11 8-6 2h-56v-1l56-1-1-3 12-6 1-2 1-1h5l3-12-2-11-1-3h-2l-1-4-2-1-2-4-4-2-8-3v-2l-6-1v-1h-103l-4 2h-8v-2z" fill="#424454"/>
<path transform="translate(286,1741)" d="m0 0h109l10 3 8 6 6 9 3 10-1 10-2 2v-10l-2-1-4-9-3-4v-2h-2v-2h-2l-3-4-7-1-5-4h-105l-6 3-8 2v2l-4 2-6 12-1 9 2 9 5 7v2h-2l-6-10-1-3v-14l4-10 6-7 8-5z" fill="#474A58"/>
<path transform="translate(852,993)" d="m0 0h110l10 3 9 7 5 8 2 7v12l-3 6-1-3 1-10-2-7-5-4-4-7-3-2v-2l-11-3-2-2h-105l-5 3h-2v-2h-2v2l-4 1-1 3-7 5-2 4h-2l2-6 8-8 5-3z" fill="#454757"/>
<path transform="translate(852,1741)" d="m0 0h110l11 4 8 6 6 11 1 4v12l-4 8-1-2 2-9-1-9-4-5-2-1-4-7-4-2-1-2-10-4v-1h-106l-5 1-1 2v-2l-6 2-3 5-6 4-3 3 1-4 7-8 10-5z" fill="#424455"/>
<path transform="translate(1448,204)" d="m0 0h239l15 2v1l-254-1z" fill="#EFAFAB"/>
<path transform="translate(569,1741)" d="m0 0h110l11 4 8 7 5 8 2 8v8l-2 5-1-3-1-7-4-10h-2l-2-5-1-3h-2v-2h-3l-1-2-11-4v-1h-106l-6 3v-2l-5 1 3-3z" fill="#434555"/>
<path transform="translate(1809,306)" d="m0 0 2 4 3 23-1 322h-1l-1-327-2-14z" fill="#E76F6B"/>
<path transform="translate(1135,993)" d="m0 0h111v1l-7 1-102 1-7 3h-6l-1 3-6 5h-2v4l-2 1-2 3 1-6 4-6 7-6 7-3z" fill="#444756"/>
<path transform="translate(672,994)" d="m0 0h11l10 5 7 7 4 9 1 5v8l-3 9-7 9-9 6-4-1 2-3h6v-2h2v-2h3l7-14-1-7-2-6-3-4-2-2-3-5-1-3-4-1-10-4-1-2z" fill="#424454"/>
<path transform="translate(1419,993)" d="m0 0h110v1l-7 1-2 1h-100l-5 2-7 1-4 4-2 1-3 5-3 1 2-6 8-7 7-3z" fill="#434555"/>
<path transform="translate(369,1741)" d="m0 0h26l10 3 8 6 6 9 3 10-1 10-2 2v-10l-2-1-4-9-3-4v-2h-2v-2h-2l-3-4-7-1-5-4-23-1z" fill="#444656"/>
<path transform="translate(955,994)" d="m0 0h12l8 4 6 5 5 8 2 7v12l-3 6-1-3 1-10-2-7-5-4-4-7-3-2v-2l-11-3z" fill="#424454"/>
<path transform="translate(852,1741)" d="m0 0h79l-1 2-77 1-5 1-1 2v-2l-6 2-3 5-6 4-3 3 1-4 7-8 10-5z" fill="#484B58"/>
<path transform="translate(569,1741)" d="m0 0h78l-1 2-77 1-6 3v-2l-5 1 3-3z" fill="#494B58"/>
<path transform="translate(1266,1784)" d="m0 0 2 2-4 6-11 8-6 2h-56v-1l56-1-1-3 12-6 1-2 1-1h5z" fill="#424455"/>
<path transform="translate(1551,1283)" d="m0 0 1 3-7 9-9 6-6 2h-31v-1l28-1v-2l3-1 2 1 1-2 7-6h2l2-4 5-1z" fill="#434555"/>
<path transform="translate(701,1282)" d="m0 0h2l-2 6-8 9-9 5-4 1h-26v-1l21-1 4-3 5-1v-2l5-1 1-3h3v-2h3v-2h2l1-3z" fill="#424555"/>
<path transform="translate(1135,1741)" d="m0 0h76v1l-74 2-4 2h-8v-2z" fill="#4B4D5A"/>
<path transform="translate(977,1041)" d="m0 0h4l-2 4-6 5-6 3-4 1h-39v-1l32-1 10-1 2-4h2v-2l6-3z" fill="#444656"/>
<path transform="translate(1131,1243)" d="m0 0 4 1h-2v3l-8 3-8 6-2 5-3 3-2 13-2-3 1-9 5-10 4-5 10-6z" fill="#474958"/>
<path transform="translate(822,160)" d="m0 0h1l1 10 1 6v13l-2 9h-2v-37z" fill="#2E3243"/>
<path transform="translate(1474,993)" d="m0 0h55v1l-7 1-2 1-47-1z" fill="#434556"/>
<path transform="translate(264,1507)" d="m0 0 1 3-3 6v15l6 10 4 4 5 2v2l2 1-5-1-10-9-4-8-1-3v-14l3-7z" fill="#434655"/>
<path transform="translate(1264,1289)" d="m0 0 1 2-4 5-10 6-4 1h-30v-1l26-1 6-3 3-1v-2l6 1v-2h2l1-3z" fill="#444655"/>
<path transform="translate(847,1243)" d="m0 0 4 1h-2v3l-6 1-1 2-6 4-3 1-2 6-4 9h-1v-6l5-10 9-8z" fill="#474957"/>
<path transform="translate(564,1243)" d="m0 0 4 1-2 2-10 5-5 5-6 11-2 2v-6l6-10 8-7z" fill="#464857"/>
<path transform="translate(566,1492)" d="m0 0h8l-3 2-11 4-4 2-1 3-4 2-3 3-3 6-1-3 4-8 8-7z" fill="#494C59"/>
<path transform="translate(975,1291)" d="m0 0h2v2l2 1-6 5-5 3-4 1h-26v-1l25-1 1-3 4-1v-2l7 1z" fill="#434555"/>
<path transform="translate(849,1492)" d="m0 0h8l-4 3-5 2-9 2v2l-5 5-3 1-1 4-2 1 1-5 6-8 10-6z" fill="#494B59"/>
<path transform="translate(1531,1048)" d="m0 0h6l1 3-8 3h-51v-1l43-1 7-1z" fill="#434556"/>
<path transform="translate(1130,994)" d="m0 0 7 1-4 3-5 1-4 1-5 5-4 2v4l-2 1-2 3 1-6 4-6 7-6z" fill="#464857"/>
<path transform="translate(408,1291)" d="m0 0 5 1-2 4-10 6-4 1h-25v-1l23-1v-2h5l4-1v-2l3-2z" fill="#444756"/>
<path transform="translate(701,1531)" d="m0 0h2l-1 4-4 6-5 5-7 5-3 1h-7l4-2 7-2 2-4 2-3 4-2h2z" fill="#424554"/>
<path transform="translate(1416,1492)" d="m0 0h8l-1 2-10 3-5 2-8 6-1 2h-2v3h-2l2-5 6-7 9-5z" fill="#484B59"/>
<path transform="translate(265,1752)" d="m0 0 2 1-2 6-3 6-1 9 2 9 5 7v2h-2l-6-10-1-3v-14l4-10z" fill="#464957"/>
<path transform="translate(692,1792)" d="m0 0h3l-2 4-9 5-4 1h-32v-1l24-1 10-1 3-4 5 1v-2h2z" fill="#464857"/>
<path transform="translate(309,163)" d="m0 0h2l1 17v15l-3 3z" fill="#2E3243"/>
<path transform="translate(408,1793)" d="m0 0 3 1-6 5-8 3h-25v-1l26-2 3-3h6z" fill="#434655"/>
<path transform="translate(1413,994)" d="m0 0 7 1-2 2-10 2-4 4-2 1-3 5-3 1 2-6 8-7z" fill="#464857"/>
<path transform="translate(1551,1034)" d="m0 0 1 3-7 9-5 4h-3l2-6 6-5h3z" fill="#414353"/>
<path transform="translate(280,1742)" d="m0 0 6 1-3 3-7 2-4 1v2l-6 2 2-4 9-6z" fill="#454756"/>
<path transform="translate(843,995)" d="m0 0 2 1-1 3-4 1-1 3-7 5-2 4h-2l2-6 8-8z" fill="#464857"/>
<path transform="translate(1135,1741)" d="m0 0h15l-1 2-12 1-4 2h-8v-2z" fill="#474957"/>
<path transform="translate(987,1268)" d="m0 0h1v11l-4 9-2 1 2-8v-11z" fill="#434555"/>
<path transform="translate(1109,1767)" d="m0 0h1l2 14 6 9 5 5 1 2-5-2-6-7-4-9-1-10z" fill="#484A58"/>
<path transform="translate(980,1789)" d="m0 0v3l-8 7-7 1 3-5h2l1-2 5-1z" fill="#424454"/>
<path transform="translate(48,235)" d="m0 0v3h-3zm-5 4 2 1-9 11-4 3-2-1 11-12z" fill="#EB5F53"/>
<path transform="translate(1549,1536)" d="m0 0 1 2-7 8-8 5h-5l3-2 6-3 1-2h3l2-7h3z" fill="#424454"/>
<path transform="translate(555,1746)" d="m0 0h2l-1 4-5 5h-2l-2 5-2 2 1-6 7-8z" fill="#454757"/>
<path transform="translate(987,1766)" d="m0 0h1v12l-4 8-1-2 2-9v-8z" fill="#454756"/>
<path transform="translate(564,1243)" d="m0 0 4 1-2 2-10 5-3-1 4-4z" fill="#474A58"/>
<path transform="translate(1393,1527)" d="m0 0 2 1 2 7 4 6 7 6-2 1-8-7-5-9z" fill="#464957"/>
<path transform="translate(547,1039)" d="m0 0h2l5 6 6 4 10 3v1l-9-1-8-5-6-6z" fill="#424453"/>
<path transform="translate(1120,1747)" d="m0 0 4 1-2 3-5 4h-2l-2 5-1-3 6-8z" fill="#464857"/>
<path transform="translate(1554,1019)" d="m0 0h1v9l-2 6h-2v-9l-1-3z" fill="#464856"/>
<path transform="translate(987,1018)" d="m0 0h1v12l-3 6-1-3 1-10v-4z" fill="#454756"/>
<path transform="translate(837,1747)" d="m0 0h3l-1 4-7 5-3 3 1-4z" fill="#464857"/>
<path transform="translate(1531,1048)" d="m0 0h6l1 3-8 3h-7v-1l6-2z" fill="#474958"/>
<path transform="translate(412,1541)" d="m0 0v3l-8 6-4 2h-7l4-2 7-3 3-1v-2h3v-2z" fill="#444756"/>
<path transform="translate(1132,1492)" d="m0 0h8v1h-6v3l-7 2-2-2 3-3z" fill="#494B59"/>
<path transform="translate(692,1792)" d="m0 0h3l-2 4-7 4-4-1 3-4 5 1v-2h2z" fill="#414453"/>
<path transform="translate(265,1752)" d="m0 0 2 1-2 6-5 9-1-3 4-10z" fill="#484A58"/>
<path transform="translate(1120,1498)" d="m0 0 3 1v2l-7 6-1 2h-2l1-5z" fill="#454757"/>
<path transform="translate(1393,1278)" d="m0 0 2 2 3 8 4 5 5 5-5-2-6-7-3-7z" fill="#484A58"/>
<path transform="translate(692,1044)" d="m0 0h3l-2 4-7 4-4-1 2-3h6v-2h2z" fill="#404352"/>
<path transform="translate(110,206)" d="m0 0 4 1-6 4-6-1-3 1-2-2z" fill="#EA594E"/>
<path transform="translate(544,1531)" d="m0 0 3 4 4 6 3 2v2l5 2 1 2-5-2-7-6-4-7z" fill="#494B59"/>
<path transform="translate(563,994)" d="m0 0 6 1v2l-6 2v-2l-2 2-4-1 3-3z" fill="#474958"/>
<path transform="translate(554,1499)" d="m0 0 2 2-1 2-4 2-3 3-3 6-1-3 3-6z" fill="#454757"/>
<path transform="translate(986,1527)" d="m0 0h1l-1 7-6 9h-2v-2l-2-1 4-1 1-2h2z" fill="#3F4250"/>
<path transform="translate(1405,1498)" d="m0 0 2 2-7 5-1 2h-2v3h-2l2-5 4-5z" fill="#454756"/>
<path transform="translate(1755,229)" d="m0 0 5 2 10 9h-3l-2-1v-2l-5-2v-2l-4-2z" fill="#E77B77"/>
<path transform="translate(264,1507)" d="m0 0 1 3-4 8-2 1 1-7 2-4z" fill="#474958"/>
<path transform="translate(833,1501)" d="m0 0 3 1-3 5h-2l-1 4-2 1 1-5z" fill="#464857"/>
<path transform="translate(266,1539)" d="m0 0 5 4 1 2 5 2v2l2 1-5-1-9-8z" fill="#494B59"/>
<path transform="translate(829,1037)" d="m0 0h2l2 5 3 1 5 6-5-2-7-8z" fill="#474A57"/>
<path transform="translate(1403,999)" d="m0 0 2 1-2 3-3 4-3 3-1-2 4-6z" fill="#494C59"/>
<path transform="translate(847,994)" d="m0 0 6 1-3 3-4 1v-2l-2-1z" fill="#444656"/>
</svg>
